<?xml version="1.0" encoding="utf-8"?>
<!-- Generator: Adobe Illustrator 23.0.3, SVG Export Plug-In . SVG Version: 6.00 Build 0)  -->
<svg version="1.1" xmlns="http://www.w3.org/2000/svg" xmlns:xlink="http://www.w3.org/1999/xlink" x="0px" y="0px"
	 viewBox="0 0 1600 1200" style="enable-background:new 0 0 1600 1200;" xml:space="preserve">
<style type="text/css">
	.st0{fill:#E8E8E8;}
	.st1{fill:#EC615B;}
	.st2{fill:#5222D0;}
	.st3{fill:#FFFFFF;}
	.st4{fill:#161616;}
	.st5{fill:none;stroke:#161616;stroke-width:2;stroke-miterlimit:10;}
	.st6{opacity:0.17;fill:#AAAAAA;}
	.st7{opacity:0.15;fill:#7A7A7A;}
	.st8{opacity:0.14;fill:#898989;}
	.st9{opacity:6.000000e-02;fill:#A5A5A5;stroke:#A5A5A5;stroke-miterlimit:10;}
	.st10{fill:#A5A5A5;stroke:#A5A5A5;stroke-miterlimit:10;}
	.st11{opacity:6.000000e-02;fill:#AAAAAA;}
	.st12{fill:#AAAAAA;}
	.st13{opacity:0.23;fill:#AAAAAA;}
	.st14{opacity:0.14;fill:#AAAAAA;}
	.st15{opacity:0.29;fill:#AAAAAA;}
	.st16{opacity:0.22;fill:#AAAAAA;}
</style>
<g id="background">
	<g>
		<g>
			<path class="st0" d="M92.8,795.9c84.5,0,169,0,253.5,0c84.2,0,168.3,0,252.5,0c47.6,0,95.1,0,142.7,0c1.9,0,1.9-3,0-3
				c-84.5,0-169,0-253.5,0c-84.2,0-168.3,0-252.5,0c-47.6,0-95.1,0-142.7,0C90.9,792.9,90.9,795.9,92.8,795.9L92.8,795.9z"/>
		</g>
	</g>
	<g>
		<g>
			<path class="st0" d="M232,876.7c4.8,4.8,9.6,9.6,14.3,14.3c1.4,1.4,3.5-0.8,2.1-2.1c-4.8-4.8-9.6-9.6-14.3-14.3
				C232.7,873.2,230.6,875.4,232,876.7L232,876.7z"/>
		</g>
	</g>
	<g>
		<g>
			<path class="st0" d="M706.4,874c93.7,0,187.5,0,281.2,0c94.1,0,188.1,0,282.2,0c52.9,0,105.7,0,158.6,0c1.9,0,1.9-3,0-3
				c-93.7,0-187.5,0-281.2,0c-94.1,0-188.1,0-282.2,0c-52.9,0-105.7,0-158.6,0C704.5,871,704.5,874,706.4,874L706.4,874z"/>
		</g>
	</g>
	<g>
		<g>
			<path class="st0" d="M849.9,808.6c84.7,0,169.3,0,254,0c85,0,170,0,255,0c47.7,0,95.3,0,143,0c1.9,0,1.9-3,0-3
				c-84.7,0-169.3,0-254,0c-85,0-170,0-255,0c-47.7,0-95.3,0-143,0C847.9,805.6,847.9,808.6,849.9,808.6L849.9,808.6z"/>
		</g>
	</g>
	<g>
		<g>
			<path class="st0" d="M139,1028.6c119.6,0,239.3,0,358.9,0c33.9,0,67.8,0,101.7,0c1.9,0,1.9-3,0-3c-119.6,0-239.3,0-358.9,0
				c-33.9,0-67.8,0-101.7,0C137.1,1025.6,137.1,1028.6,139,1028.6L139,1028.6z"/>
		</g>
	</g>
	<g>
		<g>
			<path class="st0" d="M109.8,790.2c-8.9-8.9-15.2-19.6-18.7-31.7c-0.5,0.6-1,1.3-1.4,1.9c2.6-0.2,5.3-0.4,7.9-0.6
				c1.5-0.1,2-1.9,0.8-2.8c-4.1-2.8-6.7-7-7.7-11.8c-0.5-2.6-0.5-5.3,0-7.9c0.5-2.1,2.1-4,2.5-5.9c0.6-3.3-3.2-8.4-4.5-11.5
				c-2.5-5.8-4.7-11.6-6.8-17.6c-7.9-22.7-12.9-46.3-14.9-70.2c-0.6,0.5-1.3,1-1.9,1.4c3,1.1,5.3,2.9,7.3,5.5
				c0.9,1.3,3.3,0.6,2.7-1.2c-4.3-14.9-5.5-30.2-3.6-45.6c-0.9,0.4-1.7,0.7-2.6,1.1c7.8,7.2,12.4,16.6,16.1,26.3
				c4.1,11,7.7,22.3,11.4,33.5c7.7,23.5,15.1,47.1,22.1,70.7c0.5,1.5,3.2,1.3,2.9-0.4c1.4-3.4,2.5-4.2,3.2-2.2
				c0.4,0.8,0.8,1.6,1.2,2.4c0.8,1.6,1.6,3.2,2.4,4.8c1.4,3,2.8,6,4.1,9c2.7,6.1,6.4,11.3,9.4,17.3c6.3,12.3,9.4,26,9.3,39.8
				c0,1.9,3,1.9,3,0c0-13.2-2.7-26.3-8.3-38.3c-2.9-6.2-7.2-11.6-9.8-17.8c-3-7.2-6.4-14.2-10.1-21c-0.2-0.5-0.8-0.7-1.3-0.7
				c-3.9,0-6.7,2.9-6.2,6.8c1-0.1,2-0.3,2.9-0.4c-7.4-25-15.2-49.8-23.3-74.5c-6.4-19.4-11.4-43-27-57.4c-1-1-2.4-0.2-2.6,1.1
				c-2,15.6-0.7,31.3,3.7,46.4c0.9-0.4,1.8-0.8,2.7-1.2c-2.4-3.3-5.2-5.4-9.1-6.9c-0.9-0.3-2,0.5-1.9,1.4
				c2.2,26.3,7.9,52.3,17.2,77.1c2.2,5.8,4.6,11.6,7.2,17.3c1.4,3.1,1.8,3.8,0.6,6.8c-0.7,1.8-1.2,3.7-1.4,5.6
				c-1,8.2,2.7,16.2,9.5,20.9c0.3-0.9,0.5-1.9,0.8-2.8c-2.6,0.2-5.3,0.4-7.9,0.6c-1,0.1-1.7,0.9-1.4,1.9c3.6,12.6,10.2,23.8,19.5,33
				C109,793.6,111.2,791.5,109.8,790.2L109.8,790.2z"/>
		</g>
	</g>
	<g>
		<g>
			<path class="st0" d="M135.8,977.6c1.9,0,1.9-3,0-3C133.9,974.6,133.9,977.6,135.8,977.6L135.8,977.6z"/>
		</g>
	</g>
	<g>
		<g>
			<path class="st0" d="M168.4,972.7c-2.3,7.7-16.2,5.3-21.9,4.3c-7-1.2-13.8-3.4-20.3-6c-6.6-2.6-13.3-5.8-18.2-11
				c-5.1-5.4-9.9-15.3-3.7-21.8c9.4-9.9,29.4-2.1,39.4,3.2c9.5,4.9,31.6,19.3,23.7,32.3c-1,1.7,1.6,3.2,2.6,1.5
				c7-11.6-5.6-23.1-14-29.6c-10.9-8.3-25.4-14.8-39.3-14.9c-12.4-0.1-21.6,9.2-17,21.7c4.9,13.3,19.3,19.4,31.7,23.6
				c8.7,3,18.3,5.3,27.6,4.8c5.2-0.3,10.7-1.9,12.4-7.4C171.8,971.6,168.9,970.8,168.4,972.7L168.4,972.7z"/>
		</g>
	</g>
	<g>
		<g>
			<path class="st0" d="M99.7,951.4c-0.2,13.5,13.5,22.6,24.5,27.7c12.3,5.7,26.8,6.9,38.6-0.7c1.6-1,0.1-3.6-1.5-2.6
				c-10.9,7-24.2,6-35.5,0.7c-9.9-4.6-23.2-12.8-23-25.1C102.7,949.5,99.7,949.5,99.7,951.4L99.7,951.4z"/>
		</g>
	</g>
	<g>
		<g>
			<path class="st0" d="M124.1,942c-10.7,18.3,28.1,36.9,31,15.9c0.3-1.9-2.6-2.7-2.9-0.8c-2.2,16.5-33.9,0.7-25.5-13.6
				C127.6,941.9,125.1,940.4,124.1,942L124.1,942z"/>
		</g>
	</g>
	<g>
		<g>
			<path class="st0" d="M129.2,964.6c2.1-4.1,4.2-8.2,6.3-12.3c0.9-1.7-1.7-3.2-2.6-1.5c-2.1,4.1-4.2,8.2-6.3,12.3
				C125.7,964.8,128.3,966.3,129.2,964.6L129.2,964.6z"/>
		</g>
	</g>
	<g>
		<g>
			<path class="st0" d="M137.8,966.5c1.6-3.9,3.8-7.7,6.4-11c1.2-1.5-0.9-3.6-2.1-2.1c-3,3.8-5.3,7.9-7.2,12.4
				C134.2,967.5,137.1,968.3,137.8,966.5L137.8,966.5z"/>
		</g>
	</g>
	<g>
		<g>
			<path class="st0" d="M242.3,968.1c-1.8-10.4,4.8-20.1,12.5-26.3c3.8-3.1,9.8-7.2,14.9-6.9c7.7,0.6,9.6,9.6,8.4,15.8
				c-1.7,8.6-7.7,16.1-15.4,20.3c-3.8,2.1-8.5,3.7-12.8,3.6c-6.8-0.2-6.7-6.9-6-11.9c0.3-1.9-2.6-2.7-2.9-0.8
				c-0.6,4.5-1.2,10.5,2.8,13.8c3.9,3.3,10.4,1.8,14.9,0.3c11.5-3.9,21.2-14.4,22.6-26.6c0.7-5.7-0.8-11.9-5.8-15.4
				c-5.6-3.9-12-1.2-17.4,1.9c-11.3,6.7-21.1,19.3-18.7,33C239.7,970.8,242.6,970,242.3,968.1L242.3,968.1z"/>
		</g>
	</g>
	<g>
		<g>
			<path class="st0" d="M269.2,943.9c-3.1-1.8-6.2-0.8-9,1.1c-3.4,2.3-7.1,5.9-9.2,9.5c-1.7,2.9-1.5,6.2,0.9,8.7
				c2.9,3.1,7.3,3,11,1.7c1.8-0.6,1-3.5-0.8-2.9c-2.8,0.9-5.9,1.3-8-1c-2.9-3.1,0.1-6.1,2.2-8.4c2.5-2.6,7.3-8.5,11.4-6.2
				C269.4,947.5,270.9,944.9,269.2,943.9L269.2,943.9z"/>
		</g>
	</g>
	<g>
		<g>
			<path class="st0" d="M250.3,952.1c2.3,0.7,4.5,1.9,6.3,3.4c1.5,1.2,3.6-0.9,2.1-2.1c-2.3-1.9-4.8-3.3-7.7-4.2
				C249.2,948.6,248.4,951.5,250.3,952.1L250.3,952.1z"/>
		</g>
	</g>
	<g>
		<g>
			<path class="st0" d="M255,947.2c3.5,1,6.6,2.8,9.3,5.3c1.4,1.3,3.5-0.8,2.1-2.1c-3.1-2.8-6.6-4.9-10.6-6.1
				C253.9,943.8,253.1,946.7,255,947.2L255,947.2z"/>
		</g>
	</g>
	<g>
		<g>
			<path class="st0" d="M245,975.6c17.6,21.3,53.3-17.7,33.9-34.7c-1.4-1.3-3.6,0.8-2.1,2.1c16.4,14.3-14.5,48.8-29.6,30.4
				C245.9,972,243.8,974.1,245,975.6L245,975.6z"/>
		</g>
	</g>
	<g>
		<g>
			<path class="st0" d="M1414,948.4c-2.6-9.5,4.2-17.1,12.3-21c4.4-2.1,10.4-3.8,15-1.1c4.9,2.9,6,9.1,4.9,14.2
				c-1.7,8-8,17.1-16.5,18.6c-11.2,1.9-14.9-8.5-15.3-17.5c-0.1-1.9-3.1-1.9-3,0c0.4,10.6,5,21.9,17.6,20.6
				c11.4-1.2,20.3-14,20.6-24.8c0.4-12.5-10.8-17.8-21.6-13.9c-10.6,3.8-20.2,13.7-16.8,25.7C1411.7,951.1,1414.5,950.3,1414,948.4
				L1414,948.4z"/>
		</g>
	</g>
	<g>
		<g>
			<path class="st0" d="M1435.8,929.3c-1.8,1.9-3.6,3.8-5.4,5.7c-1.3,1.4,0.8,3.5,2.1,2.1c1.8-1.9,3.6-3.8,5.4-5.7
				C1439.3,930,1437.2,927.9,1435.8,929.3L1435.8,929.3z"/>
		</g>
	</g>
	<g>
		<g>
			<path class="st0" d="M1436.3,936.8c-4.4-3-9.2-0.4-12,3.4c-0.4,0.5-0.2,1.4,0.2,1.8c0.7,0.7,5,2.3,3.9,3.7
				c-0.2,0.3-2.1,0.5-2.5,0.6c-1.6,0.2-2.9,0.1-4.2-0.9c-1.6-1.1-3.1,1.5-1.5,2.6c2.7,2,8.2,1.9,10.9-0.3c1.1-0.9,1.4-2.4,0.9-3.7
				c-1-2.5-3.6-2.5-5.3-4.1c0.1,0.6,0.2,1.2,0.2,1.8c1.9-2.5,4.9-4.3,7.9-2.3C1436.4,940.4,1437.9,937.8,1436.3,936.8L1436.3,936.8z
				"/>
		</g>
	</g>
	<g>
		<g>
			<path class="st0" d="M1423.5,947.7c-1.2,1.1-2.3,2.4-3.1,3.8c-1,1.7,1.6,3.2,2.6,1.5c0.7-1.2,1.6-2.3,2.6-3.2
				C1427,948.6,1424.9,946.4,1423.5,947.7L1423.5,947.7z"/>
		</g>
	</g>
	<g>
		<g>
			<path class="st0" d="M1479,913.3c-6.3-1.9-11.3-7.6-14.5-13.1c-4.8-8.2,1.5-17,10.7-16.4c7.8,0.5,13.4,7.2,15.8,14.1
				c1.2,3.6,2.5,8.4,0.4,11.8c-2.9,4.7-8.9,4.2-13.3,2.6c-1.8-0.7-2.6,2.2-0.8,2.9c9.4,3.4,19.2-1.1,18.1-12.1
				c-1-10-7.9-20.3-18.2-22.1c-8.5-1.5-18,4.5-17.6,13.8c0.4,8.9,10.5,18.9,18.7,21.4C1480.1,916.7,1480.9,913.8,1479,913.3
				L1479,913.3z"/>
		</g>
	</g>
	<g>
		<g>
			<path class="st0" d="M1468.6,889.4c1.5,1.2,3,2.3,4.5,3.5c0.6,0.5,1.7,0.1,2.1-0.5c0.5-0.8,0.1-1.6-0.5-2.1
				c-1.5-1.2-3-2.3-4.5-3.5c-0.6-0.5-1.7-0.1-2.1,0.5C1467.6,888.1,1467.9,888.9,1468.6,889.4L1468.6,889.4z"/>
		</g>
	</g>
	<g>
		<g>
			<path class="st0" d="M1481.2,890.5c-0.9-2.3-3.3-2.9-5.4-1.5c-2,1.4-3.5,4.6-3.1,7.1c0.4,2.3,2.1,3.6,4.3,2.5
				c1.5-0.8,2.8-2.5,4.7-2.5c1.1,0,2.2,0.5,1.6,2c-0.5,1.2-2.3,1.6-3.5,1.8c-1.9,0.5-1.1,3.4,0.8,2.9c2.3-0.6,4.7-1.6,5.6-4
				c0.7-1.9,0.1-3.9-1.6-5c-1.6-1-3.7-0.9-5.4-0.2c-0.6,0.2-3.3,2.4-3.6,2.3c-0.4-0.2,0.8-2.9,0.9-3c0.2-0.3,1.7-2.3,1.9-1.7
				C1479,893.1,1481.9,892.3,1481.2,890.5L1481.2,890.5z"/>
		</g>
	</g>
	<g>
		<g>
			<path class="st0" d="M1481.5,902.1c1.1,1.6,2.4,3,4,4.2c0.6,0.5,1.5,0.6,2.1,0c0.5-0.5,0.6-1.6,0-2.1c-1.3-1-2.5-2.2-3.5-3.6
				c-0.5-0.7-1.3-1-2.1-0.5C1481.4,900.5,1481,901.5,1481.5,902.1L1481.5,902.1z"/>
		</g>
	</g>
	<g>
		<g>
			<path class="st0" d="M895,1068.6c112.1,0,224.3,0,336.4,0c31.6,0,63.2,0,94.8,0c1.9,0,1.9-3,0-3c-112.1,0-224.3,0-336.4,0
				c-31.6,0-63.2,0-94.8,0C893,1065.6,893,1068.6,895,1068.6L895,1068.6z"/>
		</g>
	</g>
	<g>
		<g>
			<path class="st0" d="M821.1,778.2c-6.8-13.6-6.9-29.6-0.3-43.3c-0.8,0.1-1.6,0.2-2.4,0.3c2.7,2.2,5.4,4.4,8,6.5
				c0.9,0.7,2.7,0.4,2.6-1.1c-0.9-12.8-1.5-30,8.9-39.5c1.6-1.4,4.6-2.3,5.5-4.2c0.7-1.4,0.5-4.3,0.7-5.8c0.4-2.9,0.8-5.7,1.2-8.6
				c1.3-8.7,2.9-17.3,4.7-25.9c7.7-35.8,20.2-70.4,37-102.9c-0.9-0.1-1.8-0.2-2.7-0.4c4.8,28.5,0.4,57.2-4.1,85.5
				c-0.2,1.5,2,2.8,2.7,1.2c1.6-3.6,4.2-5.9,8.1-6.9c-0.6-0.5-1.3-1-1.9-1.4c2.5,42.7-3.4,85.5-17.3,126c-0.4,1.1,0.8,2.1,1.8,1.8
				c3.5-1,7.1-1.9,10.6-2.9c-0.6-0.3-1.2-0.7-1.8-1c3.3,8.6,2.4,17.6-2.7,25.3c-1.1,1.6,1.5,3.1,2.6,1.5c5.4-8.3,6.5-18.4,3-27.6
				c-0.3-0.8-1-1.3-1.8-1c-3.5,1-7.1,1.9-10.6,2.9c0.6,0.6,1.2,1.2,1.8,1.8c13.9-40.7,19.8-83.8,17.4-126.8c-0.1-1-0.9-1.7-1.9-1.4
				c-4.5,1.2-7.9,4-9.9,8.3c0.9,0.4,1.8,0.8,2.7,1.2c4.6-28.8,9-58,4.1-87.1c-0.2-1.3-2.2-1.5-2.7-0.4
				c-17.3,33.5-30.1,69.3-37.8,106.2c-2,9.5-3.6,19.1-4.9,28.7c-0.5,3.4-0.1,7.1-2.6,9.4c-2.1,1.8-4.2,3.2-5.9,5.5
				c-8.2,10.6-8,26-7.1,38.7c0.9-0.4,1.7-0.7,2.6-1.1c-2.7-2.2-5.4-4.4-8-6.5c-0.7-0.6-1.9-0.6-2.4,0.3c-7.1,14.8-7,31.7,0.3,46.3
				C819.4,781.4,822,779.9,821.1,778.2L821.1,778.2z"/>
		</g>
	</g>
	<circle class="st1" cx="168" cy="317.3" r="14.4"/>
	<circle class="st1" cx="1269.4" cy="100.1" r="10.3"/>
	<circle class="st1" cx="1456.3" cy="345.1" r="8.2"/>
	<circle class="st1" cx="664.5" cy="548.7" r="5.9"/>
	<circle class="st2" cx="202.4" cy="364.9" r="10.7"/>
	<circle class="st2" cx="481.1" cy="107.8" r="7.7"/>
	<circle class="st2" cx="1452.1" cy="576.9" r="15.2"/>
	<circle class="st2" cx="1088.1" cy="215.8" r="14.5"/>
	<g>
		<g>
			<path class="st2" d="M972.9,65.9c2.7-2.6,6.5-3.9,10.2-3.1c4.3,0.9,5.9,4,8.8,6.8c2.7,2.7,6.2,3.8,9.9,2.8
				c4.2-1.1,7.7-4.2,11.3-6.5c5.6-3.7,9.9-5.2,15.2-0.1c7.5,7.1,14.8,4.4,23.2,0.1c4.9-2.5,10.6-6.1,16.4-5c5.5,1.1,10,6.4,15.9,5.8
				c2.4-0.3,4.1-1.6,5.9-3.2c3.2-3.1,5.5-4.7,9.8-2.2c4.2,2.4,7.6,5.9,12.8,5.1c1.9-0.3,1.1-3.2-0.8-2.9c-5.4,0.8-9.2-5.2-14.2-6.4
				c-4.8-1.1-6.8,2.1-10.1,4.8c-6.3,5-12.6-2.9-19-3.9c-4.8-0.8-9.4,1.1-13.6,3.1c-4.8,2.3-9.7,5.9-15.2,6.4
				c-6.8,0.6-8.8-6-14.5-7.8c-8.9-2.9-15.6,7.4-23.3,9.8c-7.2,2.2-9.7-6.8-15.7-8.9c-5.3-1.9-11-0.5-15,3.3
				C969.4,65.1,971.5,67.2,972.9,65.9L972.9,65.9z"/>
		</g>
	</g>
	<g>
		<g>
			<path class="st2" d="M1078.5,88.9c2-2.8,5.2-6.8,8.8-7.4c4.9-0.8,5.8,3.9,8.6,6.3c2.6,2.2,5.6,2.5,8.7,1.3
				c4.5-1.8,7.7-6,12.4-7.4c5.6-1.7,10.5,2.8,15.4,4.7c3.8,1.5,7.5,1.6,11-0.6c2.6-1.6,4.7-4,7.9-4.4c2.5-0.3,5.1,0.8,7.3,1.9
				c7,3.5,14,10.5,22.5,7.7c1.8-0.6,1-3.5-0.8-2.9c-9.7,3.2-17.4-8.4-26.6-9.6c-5.2-0.7-7.7,2.4-11.8,4.7
				c-6.2,3.5-11.4-1.6-17.1-3.8c-4.1-1.6-7.8-1.3-11.7,0.7c-4.4,2.3-10.1,9.3-15.2,5.4c-3.7-2.8-4.7-7.5-10.2-7.1
				c-5.1,0.5-9.1,5.1-11.9,8.9C1074.8,88.9,1077.4,90.4,1078.5,88.9L1078.5,88.9z"/>
		</g>
	</g>
	<g>
		<g>
			<path class="st2" d="M141.3,507.6c5.2-5,12.8-6.7,19.7-4.5c4.1,1.4,7.7,7,12.2,6.4c2.2-0.3,3.7-2,5.2-3.4
				c3.1-2.8,5.9-5.1,10.3-5.3c6.7-0.3,11.5,4.9,17.6,6.9c4.4,1.5,8.3,0.4,11.5-2.8c2-2.1,3.6-5,6.8-5.6c2.7-0.5,5.2,0.9,7.4,2.2
				c6.3,3.9,12.8,11.4,20.8,7.9c1.8-0.8,0.2-3.4-1.5-2.6c-8.4,3.7-16.2-9.6-24.4-10.5c-4.6-0.5-7.4,2.3-10.3,5.5
				c-6.7,7.4-13.2,0.4-20.2-2.5c-4.4-1.9-9.3-2-13.8,0c-2.3,1-4,2.5-5.8,4.3c-2,1.9-3.8,3.5-6.9,1.5c-1-0.6-1.9-1.7-2.9-2.4
				c-8.6-5.7-20.4-4.3-27.7,2.8C137.8,506.8,139.9,508.9,141.3,507.6L141.3,507.6z"/>
		</g>
	</g>
	<g>
		<g>
			<path class="st2" d="M416.8,431.9c1.8-13.9,23.6-0.6,31.1-1.1c4.2-0.2,6.6-2.3,9.8-4.8c4.4-3.4,8.4-1.8,12.8,0.6
				c4.6,2.5,10.1,6.7,15.7,5c1.3-0.4,2.3-1.2,3.4-2.1c3.1-2.4,5.4-1.5,8.9-0.5c5.7,1.8,11.4,3.6,17.1,5.4c1.8,0.6,2.6-2.3,0.8-2.9
				c-6.6-2.1-13.1-4.4-19.8-6.2c-1.8-0.5-3.7-1-5.6-0.4c-2.2,0.8-3.5,3-5.7,3.7c-7,2.4-14.6-7.1-21.7-7.7c-3.9-0.3-6.4,1.5-9.3,3.8
				c-7.1,5.7-14.2,1.5-21.7-1c-7.5-2.4-17.9-1.4-19.1,8C413.6,433.8,416.6,433.8,416.8,431.9L416.8,431.9z"/>
		</g>
	</g>
	<g>
		<g>
			<path class="st2" d="M464.5,414.9c4.1-5.7,8.8-9.9,16.3-7.4c4.7,1.6,8.8,4.5,14,4c4.5-0.4,6-3.7,9.4-6c3.4-2.2,6.8-0.3,10.4,0.9
				c3.5,1.1,6.9,2.1,10.4,3.2c1.9,0.6,2.6-2.3,0.8-2.9c-4.1-1.2-8.2-2.5-12.3-3.7c-2.7-0.8-5.8-2.1-8.7-1.6c-1.9,0.3-3,1.4-4.3,2.6
				c-1.1,1.1-1.9,2.9-3.3,3.7c-2.4,1.4-5.3,0.9-7.7,0.2c-5.4-1.6-10.3-5.4-16.2-4c-5,1.2-8.5,5.6-11.3,9.5
				C460.8,414.9,463.4,416.4,464.5,414.9L464.5,414.9z"/>
		</g>
	</g>
</g>
<g id="coins">
	<path class="st3" d="M708.1,183.5c-10.1,7-14.3,16.2-17.6,23.2c-6,12.9-6.7,24.5-6.7,30c0,7.1-0.2,25,12.6,41.2
		c3.5,4.5,12.5,15.5,28.6,19.4c17.4,4.2,31.4-2.8,35.7-5c16.8-8.7,23.6-23.6,26.1-29.2c1.2-2.8,5.9-14,5.2-29.3
		c-0.3-6.5-1.2-22.1-12.6-36.5c-3-3.8-16.9-20.5-40-21.9C735.1,175.1,721.1,174.5,708.1,183.5z"/>
	<path class="st3" d="M822.2,333.4c-13,4.2-20,14.9-21.7,17.5c-6.7,10.5-6.8,20.8-6.8,27.1c-0.2,21.5,10.9,36.6,13.7,40.2
		c5.4,7,15.5,20,33.4,22.4c2.3,0.3,21.3,2.6,35.5-11c13.8-13.2,12.9-31.6,12.5-39.5c-0.3-4.9-1.8-23.4-16.6-38.9
		C869.8,348.7,846.9,325.4,822.2,333.4z"/>
	<g>
		<g>
			<path class="st4" d="M593.4,345.4c11.7-20.2,27.9-37.3,47.5-49.9c1-0.6,1-2.5-0.4-2.7c-6.4-1.1-12.2,0-18.2,2.5
				c0.4,0.9,0.8,1.8,1.2,2.7c5.3-2.7,10.8-4.4,16.7-5.1c-0.5-0.6-1-1.3-1.4-1.9c-2.2,6-4.5,12-6.7,18c-0.7,1.8,2.2,2.6,2.9,0.8
				c2.2-6,4.5-12,6.7-18c0.3-0.8-0.5-2-1.4-1.9c-6.4,0.8-12.4,2.5-18.2,5.5c-1.5,0.8-0.4,3.4,1.2,2.7c5.4-2.2,10.8-3.5,16.6-2.5
				c-0.1-0.9-0.2-1.8-0.4-2.7c-20.1,12.9-36.7,30.3-48.6,51C589.9,345.6,592.5,347.1,593.4,345.4L593.4,345.4z"/>
		</g>
	</g>
	<ellipse class="st5" cx="737.8" cy="236.7" rx="54.2" ry="61.3"/>
	<ellipse class="st5" cx="732.2" cy="236.7" rx="48.4" ry="61.3"/>
	<g>
		<g>
			<path class="st4" d="M745.4,211c-20.5-4.2-39.8,17.6-37.5,37.5c1.2,10.5,8.5,18.2,18.9,19.9c9,1.6,20,0.5,26.4-6.8
				c1.3-1.4-0.8-3.6-2.1-2.1c-5.7,6.5-15.4,7.3-23.5,6c-9.7-1.6-16.4-9.1-16.8-19c-0.8-17.2,15.8-36.4,33.8-32.7
				C746.5,214.3,747.3,211.4,745.4,211L745.4,211z"/>
		</g>
	</g>
	<g>
		<g>
			<path class="st4" d="M696.3,238.4c12.7,0,25.4,0,38.1,0.1c1.9,0,1.9-3,0-3c-12.7,0-25.4,0-38.1-0.1
				C694.4,235.4,694.4,238.4,696.3,238.4L696.3,238.4z"/>
		</g>
	</g>
	<g>
		<g>
			<path class="st4" d="M697.7,251.3c11.1,0.4,22.1,0.8,33.2,1.2c1.9,0.1,1.9-2.9,0-3c-11.1-0.4-22.1-0.8-33.2-1.2
				C695.8,248.3,695.8,251.3,697.7,251.3L697.7,251.3z"/>
		</g>
	</g>
	
		<ellipse transform="matrix(0.9085 -0.4179 0.4179 0.9085 -84.5531 386.9451)" class="st5" cx="841.3" cy="386.5" rx="45.6" ry="56.6"/>
	
		<ellipse transform="matrix(0.9587 -0.2844 0.2844 0.9587 -74.7916 256.4273)" class="st5" cx="845.5" cy="385.7" rx="41.5" ry="55.6"/>
	<g>
		<g>
			<path class="st4" d="M830.5,352.2c2.5,5.1,5,10.2,7.5,15.2c0.9,1.7,3.4,0.2,2.6-1.5c-2.5-5.1-5-10.2-7.5-15.2
				C832.2,348.9,829.6,350.5,830.5,352.2L830.5,352.2z"/>
		</g>
	</g>
	<g>
		<g>
			<path class="st4" d="M851.5,363.8c-6.6-0.1-13.8,2.5-17.6,8.2c-2.8,4.2-3.3,10.8,2.3,12.9c7.8,2.9,14-7,21.7-1.8
				c4.9,3.3,5.4,10.1,1.7,14.5c-4.4,5.3-12,5-17.1,0.9c-1.5-1.2-3.6,0.9-2.1,2.1c5.3,4.3,12.9,5.7,18.8,1.6
				c5.1-3.6,7.6-10.6,4.9-16.4c-2.9-6.2-9.8-8.7-16-6.4c-2,0.7-3.9,2-6,2.6c-2,0.6-2.8,0.5-4.8-0.4c-2.6-1.2-2.7-3-1.9-5.7
				c1.9-6.3,10.3-9,16.2-8.9C853.4,366.9,853.4,363.9,851.5,363.8L851.5,363.8z"/>
		</g>
	</g>
	<g>
		<g>
			<path class="st4" d="M855.5,402.3c2.1,4.3,4.2,8.5,6.3,12.8c0.9,1.7,3.4,0.2,2.6-1.5c-2.1-4.3-4.2-8.5-6.3-12.8
				C857.2,399.1,854.6,400.6,855.5,402.3L855.5,402.3z"/>
		</g>
	</g>
	<g>
		<g>
			<path class="st4" d="M963.2,471.8c1.2-7.5-1.5-14-4.8-20.6c-3.1-6.3-6.5-12.5-10.9-18.1c-3-3.8-8.4-10.5-13.6-11.2
				c-7.1-0.9-5,8.6-6.4,12.3c1,0.3,1.9,0.5,2.9,0.8c1.3-4.8,1.8-9.5,1.6-14.4c-0.4,0.5-0.7,1-1.1,1.4c5.9-1.2,11.5-1,17.3,0.7
				c1.9,0.5,2.7-2.4,0.8-2.9c-6.3-1.8-12.5-2-18.9-0.7c-0.6,0.1-1.1,0.8-1.1,1.4c0.2,4.7-0.3,9.1-1.5,13.6c-0.5,1.9,2.2,2.6,2.9,0.8
				c0.7-1.9,0.2-4,0.8-5.9c0.5-1.6,3.3-3.5,4.9-2.9c1.2,0.4,2.5,1.9,3.4,2.7c3.9,3.4,7,7.5,9.8,11.9c5.3,8.4,12.7,19.8,11.1,30.2
				C960,472.9,962.9,473.7,963.2,471.8L963.2,471.8z"/>
		</g>
	</g>
</g>
<g id="boy">
	<g id="hand_left_1_">
		<path class="st3" d="M414.8,399.9c5.3,4,12.8,10.1,20.7,18.4c5.8,6.1,15.4,17.1,31.2,45.2c13.8,24.5,18.7,37.9,34.8,60.1
			c4.7,6.5,11.9,15.9,24,19.2c1.2,0.3,16,4.1,22.4-3.2c2.1-2.4,2.8-6.3,4.1-14.1c1.3-7.9,1.5-13.7,1.5-13.7
			c0.7-23.4,0.5-46.7,1.9-64.5c0.9-11.8,4.2-24.8,10.6-50.8c0.7-3,4.9-18.9,16.5-28.6c5.6-4.7,8.1-3.8,8.7-3.6
			c3.5,1.5,3.1,8.9,3,10.1c-0.3,4.4-1.8,5.7-5.1,13.6c-4.9,11.4-4.4,14.9-4.2,16.1c0.7,4.3,3.3,7.4,5.2,9.2
			c15.9,0.4,28.8,2.5,38,4.5c19.3,4.1,25.7,8.4,29.1,11.3c7,5.7,10.8,12.4,12.9,16.8c-7.3-0.6-14.7-1.3-22-1.9
			c-0.4,2.8-1,6.6-2.2,11.2c-1.4,5.7-2.2,8.7-4.2,12.4c-1.4,2.6-3.5,6.4-7.7,9.6c-5.1,3.8-10.4,4.5-14.1,5.1c-3,0.4-5.5,0.5-7.3,0.4
			c-6.6,4-13.1,7.9-19.7,11.9c0.8,13.7,0.9,25.2,0.9,33.9c-0.1,27.4-2.2,35.8-4.5,42.2c-2.2,6.1-4.9,13.5-11.6,20.7
			c-1.7,1.9-12.2,12.9-28.4,15.6c-17,2.9-30.9-5-40.2-10.5c-40.3-23.7-63.5-73.8-70.5-90"/>
		<path class="st6" d="M445,437c24.5,38.3,37,67.5,43.9,87.9c2.4,7.1,7.2,22,20.6,35c5.5,5.4,19.8,19.3,39.1,18.5
			c18.9-0.7,36.4-15.3,45-36.3c0.3,6.2,0.2,16.6-4.2,28.4c-2.2,6-6,16.3-15.9,24.9c-1.1,0.9-16.2,13.5-36,12.2
			c-21-1.4-35-17.4-44.1-28.2C455,533.8,447.1,463,445,437z"/>
		<g>
			<g>
				<path class="st4" d="M392.7,389.9c32.5,9.1,53.4,38.1,68.7,66.5c8.6,15.9,16.1,32.4,25.3,47.9c7.7,13,16.9,27.4,29.9,35.8
					c11.9,7.7,29.3,8.4,38.3-4.2c1.1-1.6-1.5-3.1-2.6-1.5c-10.7,15-31,7.4-41.7-3c-11.8-11.4-20.4-26.4-28.1-40.8
					c-14.7-27.4-26.9-56.9-49.2-79.3c-11.1-11.2-24.4-20-39.7-24.2C391.6,386.5,390.8,389.4,392.7,389.9L392.7,389.9z"/>
			</g>
		</g>
		<g>
			<g>
				<path class="st4" d="M495.8,582.5c12,21.1,37.6,31.7,60.9,24c25.5-8.4,36.3-32.4,38.3-57.5c1.4-17.4,0.4-35.1,0.3-52.5
					c0-1.9-3-1.9-3,0c0.2,16.7,1,33.5-0.1,50.1c-1,15.8-4.6,32.4-15.9,44.3c-22.6,23.7-61.8,18.3-77.9-9.9
					C497.4,579.4,494.8,580.9,495.8,582.5L495.8,582.5z"/>
			</g>
		</g>
		<g>
			<g>
				<path class="st4" d="M553.1,536.2c4.3-33.3,1-67,5.2-100.3c1.9-15,5.3-30,11.4-43.9c2.8-6.4,6.2-12.4,10.2-18.1
					c1.3-1.9,2.7-3.7,4.2-5.4c0.4-0.5,1-1.5,1.6-1.8c0.2-0.2,0.4-0.4,0.5-0.6c2.1,0.8,4.2,1.6,6.3,2.4c2.8,3.6-1.4,12.2-2.9,15.4
					c-4.3,9.1-11.2,23.2-0.1,30.5c1.6,1.1,3.1-1.5,1.5-2.6c-7.3-4.8-4.3-15.1-1.2-21.6c3.1-6.4,7.3-13.3,6-20.7
					c-0.7-4.2-4.6-9.8-9.5-7.5c-2.4,1.1-4.3,4.1-5.9,6.2c-2.2,2.8-4.3,5.8-6.2,8.8c-17.6,28-20.5,62.2-21.2,94.4
					c-0.5,21.6-0.2,43.3-3,64.7C549.8,538.1,552.8,538.1,553.1,536.2L553.1,536.2z"/>
			</g>
		</g>
		<g>
			<g>
				<path class="st4" d="M589.7,413.5c22.8,2.3,49,4.3,68.5,17.7c2.3,1.6,4.5,3.4,6.3,5.5c1.4,1.7,4.5,5.6,4.1,8
					c-0.4,2.3-2.5,2.2-4,2c-1.6-0.2-4.2-2-5.7-2.8c-2.3-1.2-4.6-2.4-7-3.5c-10.4-4.4-21.5-6.2-32.8-5.4c-1.9,0.1-1.9,3.1,0,3
					c8.1-0.6,16.3,0.1,24.1,2.4c7.1,2.1,13.1,6,19.8,8.8c3,1.2,7.8,2.4,8.7-2c0.9-4.3-2.5-9.7-5.2-12.7
					c-8.1-9.4-21.7-14.1-33.3-17.2c-14.2-3.9-29-5.4-43.6-6.8C587.8,410.4,587.8,413.4,589.7,413.5L589.7,413.5z"/>
			</g>
		</g>
		<g>
			<g>
				<path class="st4" d="M619.4,435.6c-7.3,1-16.2,5.1-18.7,12.7c-2.4,7.4,3.8,10.5,10.1,10.3c10-0.3,20.7-2.1,30-5.8
					c2-0.8,14.2-7.5,8.2-10.3c-1.7-0.8-3.3,1.8-1.5,2.6c-0.2-0.1-4.8,3.6-5.7,4.1c-2.6,1.3-5.4,2.1-8.2,2.8
					c-5.6,1.5-11.3,2.6-17.1,3.2c-2.3,0.2-4.7,0.5-7.1,0.5c-2.4,0-5.6-1.8-6.3-4.3c-0.3-1.1,1-3.5,1.6-4.5c3.2-5.1,9.8-7.6,15.5-8.4
					C622.1,438.2,621.3,435.3,619.4,435.6L619.4,435.6z"/>
			</g>
		</g>
		<g>
			<g>
				<path class="st4" d="M602.7,454.7c-1.6,4.4,0.1,9,3.6,12c4.9,4.1,12.4,4,18.4,3.4c11.6-1.1,24.2-8,23.7-21.3
					c-0.1-1.9-3.1-1.9-3,0c0.4,10.2-8.6,16.2-17.7,17.9c-7,1.2-26.7,1.4-22.1-11.1C606.3,453.7,603.4,452.9,602.7,454.7L602.7,454.7
					z"/>
			</g>
		</g>
		<g>
			<g>
				<path class="st4" d="M604.8,465.6c-4.1,11.6,8.1,19.1,18.3,17.7c11.6-1.6,20.6-11.4,22.4-22.8c0.3-1.9-2.6-2.7-2.9-0.8
					c-1.3,8.3-6.5,15.6-14.3,19c-8.6,3.8-25.1,0.4-20.6-12.3C608.3,464.6,605.4,463.8,604.8,465.6L604.8,465.6z"/>
			</g>
		</g>
		<g>
			<g>
				<path class="st4" d="M594.4,495.1c4.7-7.4,16.2-5.3,20.6-13.4c0.9-1.7-1.7-3.2-2.6-1.5c-4.2,7.6-15.8,5.8-20.6,13.4
					C590.8,495.2,593.4,496.7,594.4,495.1L594.4,495.1z"/>
			</g>
		</g>
	</g>
	<g id="leg_left_1_">
		<path d="M547,854.6c-6.2,7.9-12.4,16.5-18.7,25.7c-8.6,12.7-16.1,25.1-22.6,36.7c1.3,4.4,3.7,10.9,8.6,17.3
			c7,9.2,15.1,12.8,25,18.1c1.8,1,13.8,8.4,37.9,23.3c9.1,5.6,22.1,14,37.3,25.3c-3.3-7.9-7.3-16.2-12-24.8
			c-14.2-25.8-30.8-45.6-45.6-60.2c7.8-9.6,15.7-19.2,23.5-28.8C569.1,876.4,558,865.5,547,854.6z"/>
		<path class="st3" d="M360.9,678.5c9.6-9.5,26.2-23.2,50.3-31.2c54-17.9,101.5,7.6,110.9,12.8c23.4-13,41.9-24,53.9-31.1
			c42.7-25.6,59.3-37.8,91.7-50.8c24.7-9.9,39-12.4,53.1-12.1c10.7,0.2,28.3,0.7,46,12.2c5.2,3.3,23.7,15.6,30.3,38.9
			c4,14,1.9,25.6-0.8,39c-5.5,27.6-16.7,47.2-21.9,56.2c-22.9,39.4-34.4,59.1-54.9,86.1c-21.4,28.1-51.5,64.7-91.5,105
			c-4.4,0.5-11.3,0.8-19.4-0.9c-5-1-20.4-4.8-49.2-34.4c-7.6-7.8-17.7-19-28.5-33.9c9-11.4,18.1-22.8,27.1-34.2
			c-8.6,3.2-20.9,7.1-36.1,9.4c0,0-30.3,4.4-57.3-1.3C426.4,800.1,382.5,750.5,360.9,678.5z"/>
		<path class="st7" d="M477,810.1c14.3-7,28.9-14.9,43.7-23.5C591,745.4,645.1,696.8,686,651.7c-8,19.3-17.2,39.4-27.7,59.9
			c-31.6,61.8-67.4,112.9-101.4,154.1c-5.8-3.7-15.9-11.6-21.6-25.2c-1.5-3.5-2.4-6.9-3-10c8-9.5,16.1-19.1,24.1-28.6
			c-12.4,5.8-33.2,13.3-59,11.6C489.9,812.9,483,811.6,477,810.1z"/>
		<g>
			<g>
				<path class="st4" d="M519.1,664c21.2-12.4,42.5-24.8,63.7-37.3c20.3-11.9,40.4-24.2,61.1-35.3c35.6-19.1,78-33.7,116.8-14.7
					c16,7.8,29.2,21,34.3,38.4c6.5,22.2-0.3,45.8-8.5,66.5c-15.8,39.8-38.6,76.5-64.2,110.6c-29.2,38.9-62.3,74.6-95.4,110.1
					c-1.3,1.4,0.8,3.5,2.1,2.1c60.4-65,122.5-132,157.4-214.9c8.6-20.5,16.4-43,13.5-65.5c-2.3-17.4-11.6-32.3-25.6-42.7
					c-32.5-23.9-74.5-18.7-109.4-3.6c-24.9,10.8-48.1,25.6-71.5,39.3c-25.2,14.8-50.5,29.5-75.7,44.3
					C515.9,662.4,517.4,665,519.1,664L519.1,664z"/>
			</g>
		</g>
		<g>
			<g>
				<path class="st4" d="M683.5,654.2C632,711.3,581.6,769.4,532.4,828.4c-1.2,1.5,0.9,3.6,2.1,2.1c49.2-59,99.6-117.1,151.1-174.2
					C686.9,654.9,684.8,652.8,683.5,654.2L683.5,654.2z"/>
			</g>
		</g>
		<g>
			<g>
				<path class="st4" d="M532.5,829.5c-2.3,10.3,6.3,18.3,12.5,25.3c7.8,8.9,15.8,17.7,24.7,25.7c15.7,14.2,37.1,29.4,59.5,24.4
					c1.9-0.4,1.1-3.3-0.8-2.9c-21.1,4.7-41.7-10.3-56.5-23.6c-7.1-6.4-13.7-13.3-20.1-20.4c-6.3-7.1-18.7-17.1-16.4-27.6
					C535.8,828.4,533,827.6,532.5,829.5L532.5,829.5z"/>
			</g>
		</g>
		<g>
			<g>
				<path class="st4" d="M577.3,886.3c-6.8,8.3-13.6,16.7-20.5,25c-1.2,1.5,0.9,3.6,2.1,2.1c6.8-8.3,13.6-16.7,20.5-25
					C580.6,887,578.5,884.8,577.3,886.3L577.3,886.3z"/>
			</g>
		</g>
		<g>
			<g>
				<path class="st4" d="M544.8,854.4c-6,9.2-12,18.3-18,27.5c-1.1,1.6,1.5,3.1,2.6,1.5c6-9.2,12-18.3,18-27.5
					C548.4,854.3,545.8,852.8,544.8,854.4L544.8,854.4z"/>
			</g>
		</g>
		<g>
			<g>
				<path class="st4" d="M527,879.6c-5.5,8.2-10.9,16.3-16.4,24.5c-4,5.9-8.7,11.3-4.5,18.3c7.2,12,19.1,21.8,30.3,29.9
					c24.8,17.9,53.4,30,76.9,49.8c1.1,0.9,3,0.1,2.5-1.5c-10.5-35.4-40.2-59.6-58.7-90.5c-1-1.7-3.6-0.1-2.6,1.5
					c18.3,30.6,48,54.7,58.4,89.8c0.8-0.5,1.7-1,2.5-1.5c-21-17.7-46.1-29.4-69-44.4c-11.5-7.6-22.6-16.1-31.6-26.6
					c-2.5-3-6.5-6.8-7.5-10.7c-1.2-4.7,4.5-10.8,6.8-14.3c5.1-7.6,10.2-15.2,15.3-22.9C530.6,879.5,528.1,878,527,879.6L527,879.6z"
					/>
			</g>
		</g>
		<g>
			<g>
				<path class="st4" d="M488.8,815.6c22-2.8,45.3-4.6,66.3-12c1.8-0.6,1-3.5-0.8-2.9c-20.7,7.3-43.9,9.1-65.5,11.8
					C486.9,812.8,486.9,815.8,488.8,815.6L488.8,815.6z"/>
			</g>
		</g>
	</g>
	<g id="torso">
		<path class="st1" d="M279.7,377.8c8.5,0.9,21.2,2.2,36.7,3.3c53.7,4,67.2,1,85.6,8.9c19.9,8.6,30.3,23.3,44.5,43.3
			c26.2,37.1,30.8,66.8,55.6,156.7c7.9,28.6,14.8,52.5,20,70c-19-5-86.4-20.4-148.9,16.7c-18.4,10.9-32.2,23.9-42.2,35.6
			C313.8,600.8,296.8,489.3,279.7,377.8z"/>
	</g>
	<g id="hand_right_1_">
		<path class="st3" d="M283.4,378.3c-5.2,1.3-12.6,4.2-18.4,10.7c-9.6,10.9-8.8,25.6-8.5,32.7c1,26.2-2.9,52.7,1.3,78.6
			c2.9,17.8,2.9,53.7,2.8,125.5c-0.1,59.6-2.9,70.6-2.7,139.7c0.1,26.3,0.6,47.9,1,61.9c-2.2-0.4-5.8-1-10.2-2.4
			c-7.5-2.4-10.4-4.7-18.6-6.7c-6.2-1.6-8.7-1.3-10.8-0.5c-3.3,1.2-5.4,3.6-6.6,5.1c-3-0.8-7.8-1.6-13.3-0.3
			c-4.3,1-8.1,3.5-15.4,8.4c-6.6,4.4-10.9,7.9-12.8,9.3c-10.1,8.2-11.9,11.6-12.9,14c-1.1,3.1-1.4,5.8-1.3,7.8
			c8.6-2.2,18.1-4.7,22.3-5.8c12-3.1,17.2-4.5,23.9-2.7c2.5,0.7,7.1,2,10.3,6.3c2.4,3.4,2.9,6.9,3,8.8c-6.6,3.3-12.2,5.2-16.5,6.4
			c-5.5,1.5-9.3,2.1-10.1,4.6c-0.9,3,3,6.5,3.7,7.2c1.3,1.1,4.2,3.2,11,3.7c1.8,0.1,8.1,0.4,18.5-3.2c9.1-3.1,9.6-5.2,15.5-5.7
			c5.4-0.4,5.9,1.2,11.9,0.8c5.7-0.4,9.9-2.3,14.5-4.3c5.9-2.7,9.8-5.5,14.4-8.8c9.2-6.6,13.7-9.9,16.5-15.6
			c2.8-5.8,2.4-11.3,2.2-13.8c-2-37.9,7.5-75.6,9.6-113.6c1.2-21.1,1.8-31.7,2.1-39.9c0.9-20.3,2.3-55.8,2.6-101.3
			c0.3-42.4-0.4-68.8-1.1-87.6c-1.4-35.6-3-49.8-7-65.5C298.8,408.8,290.1,390.5,283.4,378.3z"/>
		<path class="st8" d="M284.2,379.1c-1.4,15.2-3.4,39-4.2,68c-2.3,77.7,5.4,111.8,10.9,229c3.3,69.4,2.5,97.5-6.7,132.5
			c-8.4,32-20.4,57-29.6,73.6c4.4-1.3,10.5-3.5,17.3-7.3c7.7-4.2,18.7-10.2,24.3-20.9c4.2-7.9,3.6-14.7,3.4-25.2
			c-0.3-16.8,2.3-33.5,2.7-50.2c0.6-27.2,3.6-32.8,7.3-69.6c3.8-37.9,4.1-66.3,4.5-99.6c0.2-14.5-0.5-39.4-1.8-89.1
			c-1.2-48.3-1.9-58-4.3-71.5C302.4,418.3,292.1,394.5,284.2,379.1z"/>
		<g>
			<g>
				<path class="st4" d="M283.8,376.9c-11.2-2.9-19.8,9.2-23.5,18.2c-5.1,12.3-5.4,26.3-5.8,39.4c-1,33.8,2.5,67.4,3.9,101.1
					c2.9,67.9-0.5,135.8-1.6,203.7c-0.6,38.2-0.4,76.4,2,114.6c0.1,1.9,3.1,1.9,3,0c-4.1-64.5-1.8-129.2-0.3-193.7
					c0.7-31.6,1.3-63.3,0.7-94.9c-0.6-32.2-3.3-64.3-4.5-96.4c-0.7-17.1-0.9-34.4,0.7-51.5c0.7-7.6,2-15.4,5.2-22.4
					c3.2-7.1,10.4-17.5,19.4-15.1C284.9,380.3,285.7,377.4,283.8,376.9L283.8,376.9z"/>
			</g>
		</g>
		<g>
			<g>
				<path class="st4" d="M282.9,379.8c15.3,23.8,21.9,51.5,24.8,79.4c3.1,28.9,3.1,58.3,3.4,87.3c0.7,64.1-1.1,128.3-5.4,192.2
					c-2.4,36.3-5.6,72.5-9.6,108.6c-0.2,1.9,2.8,1.9,3,0c7.2-65,11.8-130.4,13.9-195.8c1-32.4,1.4-64.8,1.2-97.2
					c-0.2-30-0.2-60.3-3-90.2c-2.7-30.1-9.2-60.2-25.8-85.9C284.5,376.7,281.9,378.2,282.9,379.8L282.9,379.8z"/>
			</g>
		</g>
		<g>
			<g>
				<path class="st4" d="M236.6,856.5c-6,4.5-12.4,8.4-19.2,11.4c-6.7,3-13.6,4.5-20.7,6.6c-10.8,3.1-6.2,14.8,2.7,16.9
					c5.7,1.4,12.1,1.1,17.9-0.2c7.3-1.7,13.3-7.4,20.9-7.8c10.3-0.6,23.4,4.3,30.2-6.4c1-1.6-1.6-3.1-2.6-1.5
					c-6,9.5-19.5,4.2-28.5,4.9c-4.5,0.3-8,2.3-11.9,4.4c-5.6,3-11.5,4.5-17.8,4.5c-2.7,0-5.6-0.1-8.2-0.9c-4.3-1.3-9.9-7.2-3.1-10.6
					c2.2-1.1,5.2-1.3,7.6-1.9c2.5-0.7,5-1.5,7.4-2.3c9.6-3.4,18.6-8.3,26.8-14.5C239.6,858,238.1,855.4,236.6,856.5L236.6,856.5z"/>
			</g>
		</g>
		<g>
			<g>
				<path class="st4" d="M218.2,868.9c0.2-10-9.1-16.4-18.3-17.2c-6.9-0.5-13.7,1.4-20.3,3.1c-7.6,2-15.2,3.9-22.7,5.9
					c0.6,0.5,1.3,1,1.9,1.4c-1.3-10,8.7-14.4,16.6-16.8c7.2-2.2,14.4-3.8,21.8-4.9c1.9-0.3,1.1-3.2-0.8-2.9
					c-12.8,1.9-43.2,5.6-40.7,24.6c0.1,1,0.9,1.7,1.9,1.4c10.5-2.7,21.1-6,31.8-8.1c9.9-1.9,26-0.2,25.8,13.3
					C215.2,870.8,218.2,870.8,218.2,868.9L218.2,868.9z"/>
			</g>
		</g>
		<g>
			<g>
				<path class="st4" d="M169.6,845.4c7.7-11.4,21.1-17.4,34.7-15.9c1.9,0.2,1.9-2.8,0-3c-14.7-1.6-29,5.2-37.3,17.4
					C165.9,845.5,168.5,847,169.6,845.4L169.6,845.4z"/>
			</g>
		</g>
		<g>
			<g>
				<path class="st4" d="M188.9,830.3c9.7-10.7,24.7-6.1,36.4-2.1c1.8,0.6,2.6-2.3,0.8-2.9c-12.8-4.4-28.9-8.7-39.4,2.9
					C185.5,829.7,187.6,831.8,188.9,830.3L188.9,830.3z"/>
			</g>
		</g>
		<g>
			<g>
				<path class="st4" d="M215.4,822.6c3-6.4,14.6-3,19.6-1.6c6.8,1.9,13,5,18.7,8.9c1.6,1.1,3.1-1.5,1.5-2.6
					c-7.8-5.4-16.7-9.2-26.1-10.7c-5.6-0.9-13.5-1.8-16.4,4.4C212,822.9,214.6,824.4,215.4,822.6L215.4,822.6z"/>
			</g>
		</g>
		<g>
			<g>
				<path class="st4" d="M295.7,845.6c1,8.9-5.2,15.2-12.1,19.8c-6.2,4.1-12.8,7.8-19.2,11.7c-1.6,1-0.1,3.6,1.5,2.6
					c12.2-7.4,34.8-16.4,32.7-34.1C298.5,843.7,295.5,843.6,295.7,845.6L295.7,845.6z"/>
			</g>
		</g>
	</g>
	<g id="leg_right_1_">
		<path d="M512.6,1032.9c0.6,2,1.6,2.1,8.6,10.1c6.5,7.5,8.1,10.2,16.9,21.4c3.7,4.7,9,11.4,15.8,19.4c3,0.7,7.4,1.5,12.7,1.6
			c12.1,0,21.2-4.1,24.2-5.4c4.7-2,2.5-0.5,53.4-11.9c18-4,45.1-10.2,83.1-19.3c1.1-1.9,2.2-3.8,3.3-5.6c-5.2-0.9-13-2.1-22.5-3
			c-19.4-1.9-26.4-0.7-45.5-1.4c-20.4-0.8-35.1-3.2-46.6-5c-19.9-3.2-30-5-37.9-10.5c-13.3-9.4-18.5-24-20.7-32.3
			C518.2,1014,510.7,1026.1,512.6,1032.9z"/>
		<path class="st3" d="M323.6,660.9c-10.7,4.8-16.3,13.1-18.5,16.4c-5.8,8.8-7.6,18-8.2,28.7c-1.8,29.2,5.8,53.2,7.3,58
			c10.5,32.2,24.4,55.3,34.4,71.6c35.8,58.5,58.6,90.5,58.6,90.5c20.8,29.2,49.3,67.7,85.4,112c5.3,0.1,13.1-0.3,22.1-2.6
			c19.7-5,32.3-16.1,44.7-27.3c8.5-7.7,20.1-19.6,30.9-36.5c-7-13.6-16.2-31.1-27.4-51.2c-5.9-10.6-23.6-42.2-49.5-83.4
			c-14.7-23.4-28.1-43.1-54.8-82.5c-7.8-11.5-23.2-34.1-46.8-60.4c-15.6-17.5-30-31.3-50.5-35.3C346,657.7,335.2,655.7,323.6,660.9z
			"/>
		<path class="st9" d="M323.6,660.9c-0.5,7.4-0.9,20.5,1.4,36.3c5.3,36.7,21.2,62.6,29.9,76.4c22.1,35.1,82.8,129.3,168.7,254.1
			c-4.5,2.6-10.8,5.6-18.6,7.7c-8.9,2.4-16.8,2.8-22.4,2.6c-7.4-9.2-18-22.7-30.7-39.2c-41.2-53.7-68.7-93.7-80.6-111.2
			c-31-45.9-43.5-68.1-53.4-88.9c0,0-14.3-29.9-20.7-72.7c-1.1-7.1-1.9-14.7-0.1-24C301.3,681.2,315.5,667.5,323.6,660.9z"/>
		<path class="st10" d="M380.4,1054.4"/>
		<g>
			<g>
				<path class="st4" d="M484.9,1036.2c-37.1-43.1-71.7-88.3-103.4-135.6c-15.7-23.4-30.8-47.3-45.1-71.6
					c-14.4-24.5-27.1-49.4-34-77.2c-6.5-26.3-11.2-59.1,9.3-80.7c20.9-22,52.7-11.3,72.4,6.4c9.6,8.6,17.8,18.7,25.9,28.7
					c9,11.1,17.7,22.3,26.2,33.8c16.8,22.6,32.8,45.8,48.1,69.5c34.4,53.1,65.5,108.1,96.6,163.1c1,1.7,3.5,0.2,2.6-1.5
					c-29.3-51.8-58.6-103.6-90.7-153.8c-15.8-24.8-32.3-49.2-49.7-72.9c-8.4-11.5-17-22.8-25.9-33.9c-8.7-10.9-17.4-22-27.4-31.7
					c-17.2-16.7-43.2-30.3-67.1-19.4c-23,10.5-30.3,37.8-28.7,61c1.9,28.7,11.5,57.3,24.5,82.8c13.4,26.1,29.2,51.1,45.1,75.7
					c35.9,55.8,75.8,109,119.1,159.2C484.1,1039.8,486.2,1037.6,484.9,1036.2L484.9,1036.2z"/>
			</g>
		</g>
		<g>
			<g>
				<path class="st4" d="M482.6,1039.6c44.4,1.7,74.7-35.3,99.1-67.2c1.2-1.5-1.4-3-2.6-1.5c-23.8,31-53.3,67.4-96.5,65.7
					C480.7,1036.5,480.7,1039.5,482.6,1039.6L482.6,1039.6z"/>
			</g>
		</g>
		<g>
			<g>
				<path class="st4" d="M512.8,1034.9c6.4,8.2,12.9,16.3,19.3,24.5c6.2,7.9,12,16.4,18.8,23.8c5.2,5.7,11,4.8,17.9,3.3
					c10.4-2.3,20.8-4.6,31.1-6.9c40.9-9.1,81.7-18.2,122.6-27.4c1.9-0.4,1.1-3.3-0.8-2.9c-38.3,8.5-76.5,17.1-114.8,25.6
					c-9.7,2.2-19.5,4.3-29.2,6.5c-4.4,1-8.9,2.2-13.3,3c-6.1,1.1-9.7-1.1-13.4-5.6c-12.3-15.2-24.2-30.6-36.2-45.9
					C513.7,1031.2,511.6,1033.4,512.8,1034.9L512.8,1034.9z"/>
			</g>
		</g>
		<g>
			<g>
				<path class="st4" d="M559.6,997.6c4.2,29.8,37.8,37.3,62.8,38.3c36.2,1.4,72,3.4,107.8,8.7c-0.3-0.6-0.7-1.2-1-1.8
					c-0.9,4.1-4.1,6.6-8.3,6.4c-1.9-0.1-1.9,2.9,0,3c5.5,0.3,10.1-3.2,11.2-8.6c0.2-0.7-0.2-1.7-1-1.8c-32.4-4.8-65-7.6-97.8-8.5
					c-26.1-0.7-66.1-3.2-70.7-36.4C562.2,994.9,559.3,995.7,559.6,997.6L559.6,997.6z"/>
			</g>
		</g>
	</g>
	<g id="head_1_">
		<path class="st3" d="M311.9,267.7c-0.2-0.6-2.3-8.4-9.4-10.8c-7-2.3-13.6,2.5-16.7,6.7c-4.9,6.6-2.8,14.6-2,17.9
			c1.7,6.7,5.8,10.9,9.4,14.6c2.3,2.4,4.1,4.2,7.1,5.4c5.1,2,10,0.8,12.2,0.1c0.4,2.9,0.9,7.6,1.3,13.4c0.5,7.1,1.3,20.7-1,60.3
			c-0.2,3.7-0.5,9.1-1,15.7c0.9,1.8,2.3,4.2,4.9,6.2c4.5,3.5,9.6,3.6,13,3.8c6.3,0.3,14.8,0.9,26.3,2.6c1.6-1.8,3.2-3.9,4.7-6.5
			c5.6-9.8,5.3-19.7,4.8-24.6c5.3,1.8,12,3.5,20,4.2c4.8,0.4,9.2,0.4,13,0.2c4.4-2.6,10.5-6.7,16.6-13.1c6.3-6.5,9.7-12.4,13.4-18.9
			c2.7-4.8,9-16.3,13.8-32.6c1.9-6.4,4.8-17.6,6.1-32c0.3-3.8,1.6-19-1.1-39c-2-15.1-3.1-22.7-8.3-31.9c-1.3-2.3-6.8-11.7-17.6-19.6
			c-17.3-12.7-38.2-14.2-50.5-12.1C340,182.8,312.6,219.6,311.9,267.7z"/>
		<path class="st11" d="M343.2,211.7c-2,4.8-4.5,12-6.3,20.8c-1.9,9.1-4.7,28.7,4.6,65c4.8,18.6,13.9,46,32.2,76.6
			c-3.6-1.2-7.1-2.4-10.7-3.6c2.2,4.2,4.3,9.3,2.5,11.1c-3.1,3.1-16.6-5.1-24.2-11.3c-7.5-6-19.7-18.3-27-42.2
			c-0.6-8.9-1.2-17.7-1.9-26.6c-2.6,0.8-6.4,1.6-10.7,0.6c-14.9-3.4-18.8-24.6-19-25.8c-0.8-4.5-2.4-14,3.1-21
			c5.9-7.6,13.3-3.5,20.5-10.1c10.9-10,2.4-27.2,11.6-34.5C321.4,207.9,328.2,205.9,343.2,211.7z"/>
		<path class="st12" d="M280,447.1"/>
		<path class="st2" d="M313.7,314.9c-10.1-4.5-23.7-12.6-32.5-27.2c-11-18.2-1.3-24.7-13.2-54.5c-7.8-19.6-13.7-34.5-24.1-48.2
			c-0.2-0.2-4.2-5.6-3.4-6.3c1.7-1.6,23,20.5,26.4,17.8c2-1.6-4.4-10.1-7.5-20.6c-3.5-11.8-3.4-27.9,7.5-49.9
			c1.5,4.1,4.6,10.9,10.9,17.2c10.1,10,21.9,12.5,26.4,13.2c-2.6-4.9-9.4-19.4-6.3-37.8c4.5-26.6,25.9-39.9,29.2-41.9
			c8.2,10.7,16.4,21.4,24.7,32.1c-0.6-1.5-4.6-12.7,1.7-23.5c4.5-7.6,11.5-10.6,13.8-11.5c5.2,17.1,12.5,28.5,17.8,35.5
			c14.5,19.1,25.8,20.3,44.7,43c7.9,9.4,15.3,18.2,20.1,31c9.2,24.4,3.4,48.6-1.9,63.2c-0.8-9.5-2.9-22.2-8.2-36.4
			c-6.1-16.4-14.3-28.6-20.6-36.7c-7.7,7.5-15.4,15.1-23.1,22.6c-9.7-5.2-19.4-10.4-29.2-15.6c-7.9,10.4-15.7,20.8-23.6,31.2
			c-8.2,1.9-16.4,3.7-24.7,5.6c-0.8,10-1.7,20-2.5,30c0.9,14.7-0.7,19.2-2.8,19.8c-3.6,1-7.4-11.2-15-10.6
			c-8.2,0.7-11.8,9.6-12.6,11.7c-2,5.5-0.7,10.3,0,13.2c0.7,2.6,4.2,14.7,15.5,18.9c4.6,1.7,8.7,1.5,11.1,1.2
			C312.8,306,313.3,310.4,313.7,314.9z"/>
		<g>
			<g>
				<path class="st4" d="M312.6,304c1.6,10,5.9,19.1,10.8,27.8c4.9,8.8,9.8,17.8,16.6,25.2c13.7,14.8,35.4,21.1,55,21.9
					c1.9,0.1,1.9-2.9,0-3c-19.4-0.8-40.9-7.1-54-22.2c-6.1-7-10.6-15.3-15-23.4c-4.8-8.6-9-17.4-10.5-27.1
					C315.2,301.3,312.3,302.1,312.6,304L312.6,304z"/>
			</g>
		</g>
		<g>
			<g>
				<path class="st4" d="M437.4,209.7c10.9,29.2,12.9,61.3,6.1,91.8c-6.3,27.8-20.5,61.8-47.7,75c-1.7,0.8-0.2,3.4,1.5,2.6
					c27.4-13.3,42.1-47.1,48.7-75.1c7.4-31.4,5.6-64.7-5.7-95C439.7,207.1,436.8,207.8,437.4,209.7L437.4,209.7z"/>
			</g>
		</g>
		<g>
			<g>
				<path class="st4" d="M311.3,303c1.5,17.7,2,35.5,1.2,53.2c-0.4,8.5-1.1,17.1-2,25.6c-0.6,5.1-1.5,11.2,2.8,14.9
					c4.8,4.1,13.5,5.1,19.5,6.2c6.9,1.3,14.6,2.7,21.6,2.1c5.3-0.4,6.5-4.2,8-8.8c2.5-7.8,3.9-15.8,4.5-23.9c0.1-1.9-2.9-1.9-3,0
					c-0.5,7-1.6,13.8-3.6,20.5c-1.1,3.7-1.9,8.5-6.6,9.3c-3,0.5-6.7-0.2-9.7-0.5c-6.5-0.6-13-1.8-19.3-3.5c-3-0.8-7.7-1.6-9.9-3.9
					c-2.4-2.6-2-6.5-1.7-9.7c2.7-27.2,3.5-54.2,1.1-81.5C314.2,301.1,311.2,301.1,311.3,303L311.3,303z"/>
			</g>
		</g>
		<g>
			<g>
				<path class="st4" d="M313,299.2c-12.5,9.1-27.1-11.3-28.6-22.1c-1-7,1.9-14.6,8.6-17.8c7.5-3.6,16.1,0.6,17.6,8.8
					c0.3,1.9,3.2,1.1,2.9-0.8c-1.4-8-8.8-13.3-16.9-12.1c-8.4,1.2-14.3,8.5-15.2,16.7c-1.7,14.3,17.2,41.7,33.3,30
					C316,300.7,314.5,298.1,313,299.2L313,299.2z"/>
			</g>
		</g>
		<g>
			<g>
				<path class="st4" d="M352.1,231.1c2.5-7.1,9-15.8,17.5-14.1c7.9,1.5,11.6,9.3,12.8,16.5c0.3,1.9,3.2,1.1,2.9-0.8
					c-1.5-8.8-6.9-18.1-16.8-18.9c-9.5-0.7-16.5,8.4-19.4,16.5C348.6,232.1,351.5,232.9,352.1,231.1L352.1,231.1z"/>
			</g>
		</g>
		<g>
			<g>
				<path class="st4" d="M418.2,230.6c1.6-4.6,5.1-8.8,10.1-9.9c5.7-1.2,11.3,2.5,12.5,8.1c0.4,1.9,3.3,1.1,2.9-0.8
					c-1.4-6.6-7.7-11.1-14.5-10.5c-6.8,0.7-11.8,6.1-13.9,12.3C414.7,231.7,417.6,232.5,418.2,230.6L418.2,230.6z"/>
			</g>
		</g>
		<g>
			<g>
				<path class="st4" d="M405.4,241.7c0.1,14-0.4,28.1-1.3,42.1c-0.5,6.8-1,13.7-1.8,20.5c-0.7,6.6-0.9,13.7-4.7,19.4
					c0.9,0.1,1.8,0.2,2.7,0.4c-2.6-6.5-4.5-13-5.9-19.8c-0.4-1.9-3.3-1.1-2.9,0.8c1.4,6.8,3.4,13.4,5.9,19.8c0.5,1.2,2,1.5,2.7,0.4
					c3-4.6,3.8-9.8,4.4-15.1c0.9-7.4,1.6-14.9,2.1-22.4c1.1-15.3,1.6-30.6,1.6-46C408.4,239.8,405.4,239.8,405.4,241.7L405.4,241.7z
					"/>
			</g>
		</g>
		<g>
			<g>
				<path class="st4" d="M357.2,317.4c3.5,6.6,6.1,13.7,12.8,17.7c5.6,3.3,12.3,4,18.5,2.2c1.8-0.5,1.1-3.4-0.8-2.9
					c-5.9,1.7-12.2,0.9-17.3-2.6c-5.4-3.8-7.6-10.2-10.6-15.8C358.9,314.2,356.3,315.7,357.2,317.4L357.2,317.4z"/>
			</g>
		</g>
		<ellipse class="st4" cx="372.3" cy="273.6" rx="5" ry="12.6"/>
		<ellipse class="st4" cx="429.3" cy="273.6" rx="5" ry="12.6"/>
	</g>
</g>
<g id="girl">
	<g id="leg_right">
		<path class="st3" d="M1170.3,703.1c-27.7-2.9-50.8-5.1-67.2-6.7c-120.7-11.3-90.7-4.9-118.6-9.1c-15-2.3-34.4-5.8-59.4-1.2
			c-23.6,4.3-33.8,12.4-38,16.2c-10.8,9.8-15.2,21.2-18.4,29.4c-5.9,15.2-6.3,28.1-6.5,37.1c-0.2,9.7-0.4,16.7,2.7,25.2
			c3.8,10.3,10.2,17,15.7,22.2c22.1,20.9,45.4,33.2,46,33.6c63.9,33.9,45.9,26.6,69.8,37.7c29,13.6,69.6,30.9,121,47.7
			c1.8-6.8,4.5-16,8-26.9c3.8-11.6,8.2-25.3,15.7-42.1c4.6-10.2,11.1-23.4,20.2-38.3c-15.5-6.5-29.4-12.8-28.9-14.1
			c0.7-1.8,28.6,8,66.1,16.6c50.1,11.5,75.2,17.2,100.7,10.4c8.9-2.4,57-16.4,66.9-55.5c8.3-32.6-15.2-61.9-18-65.4
			C1315.9,681,1244.9,674.5,1170.3,703.1z"/>
		<path class="st13" d="M967.8,736.8c17.7,6.6,45.6,16.2,80.5,25.2c49,12.6,81.8,16.2,173.9,28.4c26.5,3.5,68.6,9.2,121.3,16.6
			c-0.5,10.9-1,21.8-1.5,32.7c-21,1.4-44.2,1.7-69,0.3c-55.5-3.2-103.1-14.1-140.6-26.1c9.6,4.7,19.3,9.4,28.9,14.1
			c-3.7,6-7.4,12.5-11.1,19.6c-5.4,10.5-9.6,20.4-13.1,29.6C1080.7,830.3,1024.3,783.6,967.8,736.8z"/>
		<path d="M1124.5,908.3c3.6,0.2,9,0.6,15.4,1.9c9.1,1.8,18,3.5,25,9c6,4.7,7.2,9.5,12,19.4c4.8,10,10,17.6,20.2,32.9
			c10,14.9,6,6.4,33.7,40.5c4.2,5.1,10.3,12.7,17,11.8c2.9-0.4,5.9-2.3,7.3-5.1c2.3-4.7-1-10.6-2-12.3
			c-9.5-17.7-10.5-38.9-18.4-57.4c-6.5-15.3-15-37.6-23.1-67.8c-7.7-3.3-14.1-5.5-18.5-6.9c-14.5-4.7-22.3-5.4-37.2-10.8
			c-4.9-1.8-8.8-3.5-11.3-4.5C1137.9,875.3,1131.2,891.8,1124.5,908.3z"/>
		<g>
			<g>
				<path class="st4" d="M863,784.7c0.6-24.7,2.1-51,16.8-71.9c13.9-19.7,36.6-25.8,59.5-26.3c25.1-0.5,50.5,2.6,75.5,4.4
					c26.4,2,52.9,4,79.3,6.2c30.4,2.5,60.7,5.2,91.1,8c1.9,0.2,1.9-2.8,0-3c-56.7-5.3-113.5-10-170.4-14.2
					c-26-1.9-52.6-5.4-78.7-4.3c-21.4,0.9-42.5,6.9-56.3,24.2c-17.3,21.6-19.1,50.3-19.8,76.8C860,786.6,863,786.6,863,784.7
					L863,784.7z"/>
			</g>
		</g>
		<g>
			<g>
				<path class="st4" d="M860.6,787.3c12.2,34.4,47.2,53.4,77,70.6c36.1,20.8,73.4,39.5,112.1,54.8c11,4.3,22,8.4,33.2,12.2
					c5.7,1.9,11.5,3.8,17.3,5.5c2.6,0.8,5.2,1.6,7.8,2.3c1.5,0.4,2.9,0.8,4.4,1.2c0.6,0.2,1.2,0.3,1.7,0.5c1.3,0.6,2.7,0.7,4,0
					c0,0.7,0,1.4,0,2.1c0.1-0.1,0.2-0.2,0.3-0.4c1.2-1.5-0.9-3.6-2.1-2.1c-0.1,0.1-0.2,0.2-0.3,0.4c-0.5,0.6-0.6,1.5,0,2.1
					c3.3,3,5.8-2,1.8-4.1c-4-2.2-9.8-2.9-14.3-4.2c-5.5-1.6-11-3.4-16.4-5.2c-21.7-7.2-43-15.5-63.9-24.8
					c-20.5-9.1-40.6-19.1-60.3-29.7c-18.7-10.1-37.5-20.6-55.3-32.4c-18.7-12.5-36.4-28-44.1-49.7
					C862.8,784.7,859.9,785.5,860.6,787.3L860.6,787.3z"/>
			</g>
		</g>
		<g>
			<g>
				<path class="st4" d="M967.1,738.1c63.1,33.3,131.8,55.1,193.5,91.2c-0.2-0.7-0.4-1.4-0.5-2.1c-20,33-34.5,69.1-42.9,106.8
					c-0.4,1.9,2.5,2.7,2.9,0.8c8.3-37.4,22.7-73.2,42.6-106c0.4-0.7,0.2-1.6-0.5-2.1c-61.7-36.1-130.3-57.9-193.5-91.2
					C966.9,734.6,965.3,737.2,967.1,738.1L967.1,738.1z"/>
			</g>
		</g>
		<g>
			<g>
				<path class="st4" d="M1136.3,815.9c66.3,21.2,136.3,29.8,205.8,25.3c1.9-0.1,1.9-3.1,0-3c-69.2,4.6-138.9-4-205-25.2
					C1135.2,812.4,1134.5,815.3,1136.3,815.9L1136.3,815.9z"/>
			</g>
		</g>
		<g>
			<g>
				<path class="st4" d="M1145,861.8c16.9,4.9,33.8,9.8,50.8,14.7c3.4,1,7,1.8,10.4,3.1c5.4,2,6.7,6.2,8.3,11.2
					c2.7,8.2,5.3,16.5,7.9,24.7c10.8,33.6,21.6,67.2,32.3,100.8c0.6,1.8,3.5,1,2.9-0.8c-11.6-36.2-23.2-72.3-34.8-108.5
					c-2.4-7.6-4.2-16.1-7.7-23.3c-2.9-6-8.9-7.3-14.8-9c-18.2-5.3-36.4-10.6-54.5-15.8C1143.9,858.4,1143.1,861.3,1145,861.8
					L1145,861.8z"/>
			</g>
		</g>
		<g>
			<g>
				<path class="st4" d="M1124.5,909.8c10,0.6,19.9,2.4,29.5,5.7c4.5,1.6,8.9,3.3,12.1,7.1c3.2,3.7,5,8.4,7.2,12.6
					c8,15.6,17.3,30.4,27.8,44.5c10.2,13.6,21.4,26.7,33.7,38.4c4.1,3.9,9.8,8.8,15.9,6.7c4.7-1.6,7.3-6.4,5.2-11
					c-0.8-1.7-3.4-0.2-2.6,1.5c2.6,5.5-4.9,7.5-8.1,6.5c-2.2-0.7-4.2-2.2-5.9-3.7c-3-2.5-5.7-5.4-8.4-8.2
					c-5.2-5.3-10.2-10.9-15-16.6c-10.1-12-19.3-24.6-27.6-38c-4.1-6.6-7.9-13.3-11.5-20.2c-3.1-5.9-5.6-12.7-10.8-17
					c-4.9-4.1-11.9-6-18-7.6c-7.7-2.1-15.5-3.2-23.4-3.7C1122.6,906.7,1122.6,909.7,1124.5,909.8L1124.5,909.8z"/>
			</g>
		</g>
	</g>
	<g id="leg_left">
		<path d="M1212.7,909.8c-2.9,2.7-7.3,6.9-12.4,12.1c-11,11.2-17.3,18.8-29.6,33.6c-12.4,15-14.5,18.5-14.4,23.5
			c0.3,7.2,5.2,12.1,11.5,18.7c10.8,11.5,19.6,24.9,30.8,36.1c15.6,15.7,31.1,31.4,48.9,49.4c-2.9-15.4-6.6-31.8-11.4-49.1
			c-5.9-21.2-12.5-40.5-19.3-57.9c4.2-7,8.4-12,11.6-15.3c2.9-3,5.6-5.4,19.1-16.1c5.2-4.1,9.5-7.4,12.7-9.9
			c3.9-8.7,2.2-13.9,1.4-15.9C1256.9,908.2,1237,902.6,1212.7,909.8z"/>
		<path class="st3" d="M1176.3,901.8c3.9-7,9.5-16.6,16.7-27.7c11.6-17.7,24.8-34.9,47.2-59.7c17.1-18.9,36.3-40.1,65.7-66.1
			c59.5-52.4,82.2-54.7,90.5-55.1c5.9-0.3,24.3-0.9,42.5,10.2c6,3.6,21.3,12.9,25.9,30.3c2.2,8.3,1.5,16.9-3,30.4
			c-10.2,30.2-28.2,50.4-33.3,56.1c-42,47.2,70.4-72.6-67,80.6c-26.3,29.3-48.7,54.2-65.9,73.2c-4.6-6.4-11.8-15.5-21.7-25.5
			c-12.3-12.4-28.3-28.4-53.6-38.3C1211.1,906.7,1196.1,902.2,1176.3,901.8z"/>
		<path class="st14" d="M1441.4,705.3c-0.6,8.2-2,20.5-6.3,34.9c-5.5,18.8-14.8,37.4-32.3,60.1c-23.7,30.7-71.9,80.7-139.5,138
			c4.9,4,10.6,9.3,16.2,16.2c6.6,8.1,11.2,15.8,14.3,22.2c6.6-7.5,18.7-21.2,33.8-38.2c34.5-38.7,66.1-79.9,100.8-118.3
			c0.5-0.5,19.5-21.5,32.4-53.4c4.3-10.7,6.3-18.4,5-27.3C1463.1,720.5,1447,709,1441.4,705.3z"/>
		<g>
			<g>
				<path class="st4" d="M1177.2,900c23.8-36.5,50.8-71,80.6-102.8c14.8-15.7,30.2-30.8,46.3-45.2c16.1-14.4,32.7-29.1,50.9-40.8
					c18.7-12.1,41.4-20.6,63.8-15.3c11.1,2.6,20.3,9,28.8,16.5c8.6,7.5,15.9,16.2,16.8,28c1.7,21.9-13.3,43.2-24.6,60.7
					c-12.4,19-26.2,37.1-40.7,54.5c-33.5,40.2-69.5,78.5-104.5,117.3c-1.3,1.4,0.8,3.6,2.1,2.1c33.4-37.1,67.6-73.7,99.9-111.8
					c15-17.8,29.4-36.1,42.4-55.4c11.8-17.6,26-37.7,28.3-59.4c2.3-21.4-12.9-36.8-29.6-47.8c-18.1-11.8-40.7-11.6-60.5-4.3
					c-20.8,7.7-38.4,22.2-55.3,36.2c-17.5,14.6-34.2,29.9-50.3,46c-36.3,36.4-68.8,76.7-96.9,119.7
					C1173.6,900.1,1176.2,901.6,1177.2,900L1177.2,900z"/>
			</g>
		</g>
		<g>
			<g>
				<path class="st4" d="M1176.3,903.3c48.8,0.7,95,30.2,116.3,74.1c0.8,1.7,3.4,0.2,2.6-1.5c-21.7-44.8-69.1-74.9-118.8-75.6
					C1174.4,900.3,1174.4,903.3,1176.3,903.3L1176.3,903.3z"/>
			</g>
		</g>
		<g>
			<g>
				<path class="st4" d="M1211.7,908.8c-11.3,10.6-21.9,21.8-32,33.5c-4.6,5.4-9.1,10.9-13.4,16.6c-4.1,5.3-10.1,11.4-11.3,18.2
					c-0.9,5.2,2.1,9.7,5.1,13.6c4.9,6.4,10.1,12.6,15.3,18.8c10.2,12.2,20.8,24.2,31.6,35.9c12.3,13.3,25,26.3,38.1,38.9
					c1.4,1.3,3.5-0.8,2.1-2.1c-26.8-25.8-52.1-53.2-75.7-82c-5.8-7.1-17.3-16.7-12.1-26.6c4.3-8.1,11.3-15.7,17.1-22.7
					c11.5-14.1,24-27.3,37.2-39.8C1215.2,909.6,1213.1,907.4,1211.7,908.8L1211.7,908.8z"/>
			</g>
		</g>
		<g>
			<g>
				<path class="st4" d="M1259.4,933.7c-12,9.1-23.7,18.7-34.9,28.7c-3.8,3.4-9.5,7-9.6,12.7c0,2.8,1.4,5.8,2.3,8.4
					c1.2,3.6,2.5,7.2,3.7,10.8c10.1,29.3,19.8,58.8,25.1,89.4c0.3,1.9,3.2,1.1,2.9-0.8c-4.8-27.5-13.1-54.1-22.1-80.4
					c-2.2-6.6-4.5-13.2-6.8-19.8c-1.4-4-3.2-7.7-0.5-11.7c1.8-2.7,5.3-5,7.7-7.1c10.8-9.6,22.1-18.8,33.6-27.6
					C1262.4,935.2,1260.9,932.5,1259.4,933.7L1259.4,933.7z"/>
			</g>
		</g>
	</g>
	<g id="hand_right">
		<path class="st3" d="M1179,433.7c-4,2.1-9.8,5.6-15.7,11c-13.2,12.1-18.2,26-22.4,37.5c-21.4,58.1-18.8,46.1-23,60.7
			c-9.5,33.2-10.3,51.4-23.2,56.1c-4.6,1.7-9.4,1.2-15.6,0.6c-13.7-1.4-23.4-7.2-27.9-10c-18-11.2-26.9-27.3-29.9-33.3
			c-8.3-16.7-3.7-21.6-14.1-41.1c-7.9-14.7-14.3-19-17.2-20.7c-11.1-6.4-22-5-26.7-4.3c-4.3,0.6-9.8,1.4-11.4,5.2
			c-1.5,3.5,1,7.6,1.5,8.5c5.2,8.5,18.1,8,19.5,7.9c-1-0.2-17.9-2.9-25.6,6.9c-3.8,4.7-4.9,11.9-5.3,14.2c-0.1,0.8-0.7,4.6-0.4,9.8
			c0.1,1.1,0.3,4.6,2.3,11.9c2.3,8.6,3.5,12.9,6.3,16c1.6,1.8,5.4,6,10.4,5.3c3.9-0.5,6.4-3.7,7.1-4.7c4.7,1.5,9,3,12.6,4.3
			c7.4,2.6,9.3,3.5,11.1,5.2c3.9,3.6,4.5,8.4,5.2,11.7c1.5,6.9,5.6,13.1,13.7,25.6c4.7,7.2,12.2,18.7,26.3,28.2
			c3.7,2.5,15.7,10.2,33.3,13.2c20.4,3.5,36.4-1.3,44-3.7c2.5-0.8,14.8-4.8,28.6-14.3c0,0,13.5-9.3,23.8-21.9
			c14.1-17.3,14.7-31.9,25.7-79.6c11.9-51.6,18.1-63.8,10-81.2C1196.1,446.2,1186.1,438.3,1179,433.7z"/>
		<path class="st15" d="M949.2,564.7c4,1.2,12.1,3,21.8,0.9c14.1-3.1,22.4-12.4,24.9-15.5c1,6.1,2.8,15,6.7,25.3
			c5.2,14.1,14.8,39.9,39.9,55.2c5.8,3.6,24.4,14.9,47.3,11.3c24-3.8,38.4-21.9,55.2-43.3c16.2-20.5,24.1-38.8,33.3-59.9
			c7.9-18.3,18.2-42,22.1-67.5c0.4-2.7,0.7-5.1,1.2-5.1c2.1,0,10,49.3-3.3,101.2c-3.6,14-6.7,25.5-15.3,38.6
			c-13.5,20.4-31.2,30.8-43.2,37.6c-13.9,7.9-26.9,15.3-46,16.7c-27.9,2-48.6-10.3-55.2-14.4c-18.5-11.4-28.3-26.2-34.6-35.9
			c-8.1-12.5-12.7-24.2-15.3-32.6c-9-4.4-15.9-4.6-20.5-3.9c-5.6,0.8-9.6,3.1-13.4,1C951,572.6,949.7,568.1,949.2,564.7z"/>
		<g>
			<g>
				<path class="st4" d="M1188.2,431.9c-14.7-2.3-25.4,9.8-32.8,20.9c-9.5,14.4-16.9,30.1-23.3,46.1c-6.6,16.6-12.2,33.5-17.9,50.4
					c-2.8,8.2-5.6,16.3-8.7,24.4c-3.1,8.3-5.9,20.5-13.7,25.6c-1.6,1-0.1,3.6,1.5,2.6c5.8-3.7,8.2-10,10.7-16.2
					c3.3-8,6.3-16.1,9.1-24.2c5.6-15.8,10.7-31.7,16.4-47.4c5.8-16,12.3-31.7,20.6-46.6c7.3-13.2,19.2-35.6,37.4-32.7
					C1189.3,435,1190.1,432.2,1188.2,431.9L1188.2,431.9z"/>
			</g>
		</g>
		<g>
			<g>
				<path class="st4" d="M975.3,511c-5.3-0.7-10.5-2.2-15.3-4.6c-2.1-1-4.5-2.2-6-4c-3-3.3-0.8-7,2.8-8.6c7.5-3.5,16.5-3.6,24.4-1.3
					c7.6,2.2,14.6,6.7,19.4,13.1c6,8.1,7.5,18.5,10.1,28c5.9,22.3,19.4,44.2,39.1,56.8c12.8,8.1,27.7,11.5,42.7,11.6
					c1.9,0,1.9-3,0-3c-17.2-0.2-34-4.9-47.6-15.8c-12.4-10-21.5-23.9-27.4-38.6c-5.4-13.4-5.8-29.3-14.7-41.1
					c-9.2-12.2-25.9-18.1-40.8-14.7c-5.9,1.4-15.9,5.3-12,13.1c4,8,17.5,10.9,25.3,11.9C977.2,514.2,977.2,511.2,975.3,511
					L975.3,511z"/>
			</g>
		</g>
		<g>
			<g>
				<path class="st4" d="M972.9,510.4c-10.1,1.1-39,5.2-32.8,21.9c6.4,17.3,29.1,11.8,41.5,6.5c1.8-0.8,0.2-3.3-1.5-2.6
					c-10.9,4.7-29.5,10-36.6-3.7c-7.4-14.2,21.4-18.1,29.5-19C974.8,513.2,974.9,510.2,972.9,510.4L972.9,510.4z"/>
			</g>
		</g>
		<g>
			<g>
				<path class="st4" d="M955.2,530.2c7.5-2.4,23.7-5.9,23.8,6.9c0,1.9,3,1.9,3,0c0-5.2-3.3-9.4-8.1-11.3
					c-6.3-2.6-13.3-0.5-19.5,1.5C952.6,527.9,953.4,530.8,955.2,530.2L955.2,530.2z"/>
			</g>
		</g>
		<g>
			<g>
				<path class="st4" d="M940.6,532.6c-4.1,10.6,3.8,21.3,14.5,23.1c10.1,1.6,22.9-3.9,24.5-15c0.3-1.9-2.6-2.7-2.9-0.8
					c-2.8,20.7-41.4,14.8-33.2-6.5C944.2,531.6,941.3,530.9,940.6,532.6L940.6,532.6z"/>
			</g>
		</g>
		<g>
			<g>
				<path class="st4" d="M943.7,548.8c-3.7,8.9,2,18.9,11.6,20.2c10.8,1.4,18.8-7.8,18.4-18.1c-0.1-1.9-3.1-1.9-3,0
					c0.3,8.1-5.3,15.6-14,15.3c-8.5-0.4-13.3-9-10.1-16.5C947.3,547.9,944.4,547.1,943.7,548.8L943.7,548.8z"/>
			</g>
		</g>
		<g>
			<g>
				<path class="st4" d="M947.7,564.7c-0.9,7.2,5.9,13.7,13.1,12.9c7.4-0.8,12-8.3,11.9-15.3c0-1.9-3-1.9-3,0
					c0.1,5.1-2.9,10.7-8.2,12.1c-5.9,1.5-11.5-3.8-10.8-9.7C950.9,562.8,947.9,562.8,947.7,564.7L947.7,564.7z"/>
			</g>
		</g>
		<g>
			<g>
				<path class="st4" d="M967.5,574.9c5.8,1,12.5,1.4,18.2,3.2c5.7,1.9,7.3,9.7,9.6,14.7c4.2,9.2,8.7,18.1,14.2,26.6
					c10.8,16.5,25.1,30.2,43.8,37.3c39.9,15.1,87.5-2.5,113.5-35.1c7.6-9.5,12.4-20.5,16.2-31.9c4.4-13.2,8.3-26.6,12.1-40
					c0.5-1.9-2.4-2.7-2.9-0.8c-3.3,11.4-6.6,22.8-10.2,34.1c-3.4,10.9-7.3,21.7-13.6,31.3c-11.9,18-31.6,31.7-51.7,39
					c-20.1,7.3-42.5,8.1-62.6,0.5c-19.7-7.5-34.2-22.8-44.9-40.6c-5.6-9.3-10.2-19.2-14.5-29.1c-1.5-3.5-2.9-6.9-6.7-8.5
					c-5.9-2.3-13.4-2.5-19.7-3.6C966.4,571.7,965.6,574.6,967.5,574.9L967.5,574.9z"/>
			</g>
		</g>
	</g>
	<g id="torso_x5C_">
		<path class="st1" d="M1244.9,393.8c-29.6,8.4-49.6,27.9-55.7,34c-13.5,13.4-22.2,27.6-27.9,39.2c-15.9,32.7-15.4,62.8-14.9,78.4
			c0.6,21.7,4.5,32.2,10,57.7c5.1,23.5,11,57.4,13.9,100c11.6,10.1,33.1,25.6,63.7,32c12.5,2.6,51.2,10.6,88.6-12.4
			c17.8-11,28.8-25,34.8-34c6.6-71,12.1-130.7,17.9-191.8c2.3-23.9,4.3-45.5-8-66C1344.8,393.4,1287.2,381.8,1244.9,393.8z"/>
	</g>
	<g id="hand_left">
		<path class="st3" d="M1348.8,430.7c-4,1.2-8,5.1-13.1,23.6c-6.5,23.7-7,43-7.1,47.6c-0.4,29.6,0.5,52.6,1.1,64.5
			c2.2,46.6,4.3,58.7,8.2,71.3c2.1,7,7.6,19.5,11.6,28.8c5.2,12.1,9.7,22,13,28.8c-3.9,4.6-7.5,7.8-10.1,9.8
			c-8.4,6.6-13.9,7.5-20.3,15c-1.8,2.1-6.1,7.1-4.6,9.8c1.4,2.4,6.9,1.7,8.5,1.5c6.5-0.8,8.7-4.1,15.4-6.4c2.6-0.9,6.5-1.9,11.8-1.9
			c-2,5.6-4.5,11.7-7.7,18.1c-4.7,9.4-9.9,14.4-19.4,29.5c-5.4,8.7-7.2,12.4-5.8,14.2c2.1,2.6,10-0.6,10.5-0.9
			c7-2.9,10.7-8.2,13.2-11.6c4.2-5.6,10.5-13.1,20-21.5c-3.6,9.3-7,16.6-9.4,21.3c-3.3,6.6-7.5,14.4-12.6,25.9
			c-5.2,11.7-5.9,15-4.6,16c1.6,1.3,5.9-1.2,9.4-3.7c0.9,1.8,2.6,4.6,5.3,5.2c3.6,0.7,7.1-2.9,9.9-5.9
			c11.1-11.9,16.6-17.9,23.3-25.9c3-3.6,7.4-8.7,13.2-14.5c0.4,4.6,0.5,9.6,0.4,14.9c-0.2,10.1-3.2,15.6-1.2,16.8
			c1.9,1.2,6.7-2.3,9.6-6.3c3.4-4.7,3.7-9.8,3.8-15c0.3-14.4-1.1-22.9-1.7-35.4c-0.4-9.2-0.2-16.2-0.2-17.8
			c0.5-17.9,2.9-20.5,1.7-32c-1.3-12.4-5-18.8-6.4-20.9c-2.8-4.4-5.9-7.5-8.2-9.5c0.4-2.1,0.8-5.1,0.1-8.7
			c-1.1-5.8-4.4-8.9-8.3-14.7c-2.1-3.1-4.9-7.7-7.6-13.9c0.8-4.5,1.7-11.3,2.3-19.6c1.3-17.5,0-30.6-0.9-40.3c-2.5-26-5.7-52-8-78.1
			c-1.9-21.6-2.3-32.5-10.9-43.9C1372.1,444,1359.5,427.6,1348.8,430.7z"/>
		<path class="st16" d="M1369.3,440.9c2.3,18.2,4.3,36.9,6,56c3.9,44.6,5.6,87.2,5.7,127.2c4,4.1,9,10.1,13.4,18.1
			c2.6,4.8,6.2,11.2,8,20.3c0.4,2.1,0.5,3,0.9,6.5c1.5,11.7,3.3,19.9,4,23.8c2.2,11.3,4.4,33.1,4.6,54.9c0.1,13.8-0.6,32.2-3.8,53.8
			c3.5-1.8,8.5-5,11.4-10.7c3-5.9,2.3-11.4,1.5-19.8c0,0-1.5-16-1.8-31.1c-0.4-16.2,1.9-18,1.6-32.6c-0.4-15.4-1-21.9-3.7-28.5
			c-2.6-6.2-6.1-10.8-8.7-13.7c-0.3-4.3-1.3-10-3.8-16.4c-3.7-9.3-9-15.7-12.6-19.4c0.4-6.1,0.9-15.1,1.2-26.1
			c0.5-22.1,1.1-58.6-7.5-103C1382.7,485.3,1377.8,464.8,1369.3,440.9z"/>
		<g>
			<g>
				<path class="st4" d="M1351.8,429.3c17.3,4.3,23.7,22.2,26.9,37.9c3.5,17.4,6,35.1,8,52.8c4,35.4,5.5,71,4.4,106.5
					c-0.1,1.9,2.9,1.9,3,0c1.1-38.8-0.7-77.7-5.6-116.2c-2.3-18-4.2-36.8-9.4-54.2c-4-13.3-12.2-26.2-26.5-29.8
					C1350.7,425.9,1349.9,428.8,1351.8,429.3L1351.8,429.3z"/>
			</g>
		</g>
		<g>
			<g>
				<path class="st4" d="M1380.6,625.6c16.4,5,22.8,21.9,25.8,37.3c0.4,1.9,3.3,1.1,2.9-0.8c-3.2-16.5-10.4-34.1-27.9-39.4
					C1379.6,622.1,1378.8,625,1380.6,625.6L1380.6,625.6z"/>
			</g>
		</g>
		<g>
			<g>
				<path class="st4" d="M1392.6,661.7c12.1,0.4,20.7,10.4,24.5,21.1c4.5,12.7,2.1,26.7,1,39.8c-1.1,12.9,0.3,25.4,1.4,38.2
					c0.5,6.4,0.9,12.8,0.2,19.2c-0.5,5.2-3.2,22.3-11.5,19.8c0.4,0.5,0.7,1,1.1,1.4c1.3-10.6,1.5-21.2,0.8-31.8
					c-0.1-1.9-3.1-1.9-3,0c0.8,10.6,0.5,21.2-0.8,31.8c-0.1,0.7,0.5,1.3,1.1,1.4c12.8,3.9,15.4-20.1,15.6-27.8
					c0.5-16.9-3.3-33.4-2.1-50.4c1.2-15.3,4.2-31.6-2.4-46.2c-4.8-10.6-13.8-19.3-25.9-19.7C1390.7,658.7,1390.7,661.7,1392.6,661.7
					L1392.6,661.7z"/>
			</g>
		</g>
		<g>
			<g>
				<path class="st4" d="M1391,658.9c-9.6,7.5-16.4,17.5-23.6,27.2c-3.8,5.1-7.7,10.2-12.2,14.6c-5.3,5.2-11.5,9.3-17.5,13.5
					c-4.2,3-18.8,12.8-9.6,18.8c4.4,2.9,11.2-1.1,15.4-2.6c7.1-2.6,14.3-5.1,21.4-7.7c1.8-0.6,1-3.5-0.8-2.9
					c-5.6,2-11.3,4.1-16.9,6.1c-2.7,1-5.3,1.9-8,2.9c-1.4,0.5-2.8,1.1-4.3,1.5c-1.1,0.4-2.2,0.6-3.3,0.7c-1-1.1-2-2.2-3-3.3
					c-1.2-4.5,10.7-10.9,13.6-12.9c4.2-2.9,8.4-5.9,12.2-9.2c15-13.1,23-32.3,38.8-44.5C1394.7,659.9,1392.5,657.7,1391,658.9
					L1391,658.9z"/>
			</g>
		</g>
		<g>
			<g>
				<path class="st4" d="M1361.7,722.8c-3.1,11.7-9.7,21.8-16.6,31.7c-3.4,4.9-6.9,9.9-10,15c-2.3,3.8-6.5,9.3-6.6,13.9
					c-0.2,9.4,14.1,1.6,17.1-0.9c10.9-9,20.5-20,29.9-30.5c1.3-1.4-0.8-3.6-2.1-2.1c-7.6,8.5-15.5,16.8-23.7,24.7
					c-3.9,3.8-8.1,8.6-13.6,9.9c-2.7,0.7-4.6-0.2-4.1-2.8c0.2-1.2,1.3-2.9,1.8-4c1.1-2.1,2.2-4.1,3.4-6.1
					c9.5-15.9,22.4-29.9,27.3-48.1C1365.1,721.7,1362.2,720.9,1361.7,722.8L1361.7,722.8z"/>
			</g>
		</g>
		<g>
			<g>
				<path class="st4" d="M1372.7,750.4c-6.2,13.6-12.4,27.3-18.6,40.9c-2.6,5.7-5.9,11.5-7.8,17.4c-0.9,2.7-1.4,6.4,1.4,8.2
					c3.4,2.2,6.7-1,8.8-3.5c4.6-5.3,9-10.8,13.3-16.3c8.3-10.7,16.2-21.8,23.6-33.2c1.1-1.6-1.5-3.1-2.6-1.5
					c-5.7,8.7-11.6,17.2-17.8,25.6c-3.4,4.5-6.9,9-10.4,13.4c-1.7,2.1-3.5,4.3-5.2,6.4c-0.8,0.9-1.6,1.9-2.4,2.8
					c-1.6,1.8-1.6,2.5-4.3,2.2c-2.6-0.4-2.3-0.5-1.6-2.7c0.4-1.4,1.1-2.6,1.7-3.9c1.2-2.7,2.4-5.3,3.6-8c2.3-5,4.6-10.1,6.9-15.1
					c4.7-10.4,9.4-20.8,14.1-31.1C1376.1,750.1,1373.5,748.6,1372.7,750.4L1372.7,750.4z"/>
			</g>
		</g>
		<g>
			<g>
				<path class="st4" d="M1356.2,815.8c9.8,6.1,19.3-6.9,25-13.1c9.3-9.9,17.9-20.6,25.7-31.7c1.1-1.6-1.5-3.1-2.6-1.5
					c-6.3,9-13.1,17.6-20.4,25.8c-3.4,3.8-6.9,7.5-10.5,11.1c-4,4-9.6,10.6-15.8,6.8C1356,812.2,1354.5,814.8,1356.2,815.8
					L1356.2,815.8z"/>
			</g>
		</g>
		<g>
			<g>
				<path class="st4" d="M1350.9,427c-11.9,9.4-16.6,24.2-19.4,38.6c-3.7,19.3-5,39-5.1,58.6c0,20.1,1.4,40.1,3.3,60.1
					c1.8,18.8,2.8,38.5,7.3,56.9c4.8,19.6,18.9,35.1,23.9,54.6c0.5,1.9,3.4,1.1,2.9-0.8c-4.1-16.1-14.5-29.2-20.6-44.4
					c-6.9-17.3-7.4-37.4-9.4-55.8c-4.1-38.4-6.8-77.3-1.5-115.7c2.4-17.8,5.7-38.2,20.6-50C1354.5,427.9,1352.4,425.8,1350.9,427
					L1350.9,427z"/>
			</g>
		</g>
	</g>
	<g id="head">
		<path class="st3" d="M1199.5,209.3c-21.9,18.4-28.5,41.9-32.3,55.4c-10.3,36.6-1.9,66.7,5.5,93.2c8.8,31.4,13.7,49.1,30.5,57.2
			c25.2,12.2,55.9-7.5,60.2-10.4c3.1,2,7.5,4.1,12.7,3.9c3.1-0.1,16.3-1.4,36-41.5c12.6-25.7,20.3-41.3,22.1-65.5
			c1-12.8,3.7-48.5-19.4-80.3c-6.4-8.8-17.8-24.6-38.8-31.4C1238.4,177.6,1204,205.6,1199.5,209.3z"/>
		<path class="st6" d="M1265.3,212.9c5.5,11.7,12.3,29.7,15,52.5c0.7,6,3.2,30.2-3.7,60.7c-5.2,22.8-13.8,40.8-21.3,53.5
			c4.6,0.9,9.2,1.8,13.8,2.7c0.3,3.1,2.1,21.2,12.3,25c11.6,4.3,26.4-12.9,34.2-22c6.9-8,22.6-26.7,27-56.2
			c6.1-40.9-14.1-71.3-24-86.2c-8.3-12.4-22.2-33.3-41.2-33C1272.3,210,1268.1,211.5,1265.3,212.9z"/>
		<path class="st2" d="M1253.3,199c1.6,9.2,5,22,12.3,35.9c9.5,18,21.5,29.9,29.6,36.7c5.1-3.8,11.5-4.8,16.6-2.3
			c7.8,3.8,8.1,13.7,8.2,16c0,1.2,0.1,7.4-3.9,13.1c-7.6,10.9-22.4,9.9-23.3,9.9c-6,9.5-16.1,28.1-17.7,53.4
			c-0.9,14.8-2.3,37.3,11.8,53.6c21.2,24.5,69.7,26.1,90.8,3.4c23.2-25.1,5.3-71.4-2.2-90.8c-11.4-29.4-21.6-28.4-26.9-53.8
			c-6.6-31.7,6.7-45.7-5.6-67.2c-11.5-20.1-33.1-25.4-34.7-25.8C1278.3,174.3,1254.9,197.4,1253.3,199z"/>
		<path class="st2" d="M1281.3,194.6c-15,1.7-35.6,5.8-58.3,15.7c-17.1,7.5-30.7,16.3-40.9,24c-7.5,22.6-9.3,42.1-9.6,55.5
			c-0.3,14.1-0.6,29.2,5.9,47.8c3.2,9.3,10.5,29.3,30,44.2c5.4,4.1,10.3,6.8,13.8,8.5c6.3-1.2,12.8-2.7,19.5-4.4
			c3.6-0.9,7.2-1.9,10.6-2.9c2.8,2.4,14.8,12.8,13.5,25.5c-1.5,14.6-19.4,22.1-31.4,27c-9.2,3.8-45.6,19-69.9,0.9
			c-13.9-10.3-16.7-26.2-21-50.5c-8.3-46.4-0.9-48.3,2.2-99.7c2.9-47.1,1.5-55.5,10.1-69.5c14.4-23.6,39.3-32.2,52.7-37
			c33.1-11.8,74.7-11.2,78.8,0.8C1288.3,184,1286.9,188.4,1281.3,194.6z"/>
		<g>
			<g>
				<path class="st4" d="M1180.7,233.8c-8.3,31.5-14.3,65.5-5.7,97.7c6.8,25.2,22.5,48.6,46.4,60.1c1.7,0.8,3.3-1.7,1.5-2.6
					c-23.7-11.5-39.1-34.7-45.4-59.8c-7.9-31.3-2-64.1,6-94.7C1184.1,232.7,1181.2,232,1180.7,233.8L1180.7,233.8z"/>
			</g>
		</g>
		<g>
			<g>
				<path class="st4" d="M1223.1,391.2c21.1-1.4,40.5-11.9,53.3-28.7c1.2-1.5-1.4-3-2.6-1.5c-12.1,16-30.7,25.9-50.7,27.2
					C1221.1,388.3,1221.1,391.3,1223.1,391.2L1223.1,391.2z"/>
			</g>
		</g>
		<g>
			<g>
				<path class="st4" d="M1251,383.9c4.1,8.7,8.6,17.2,13.5,25.5c1,1.7,3.6,0.2,2.6-1.5c-4.9-8.3-9.4-16.8-13.5-25.5
					C1252.7,380.6,1250.2,382.2,1251,383.9L1251,383.9z"/>
			</g>
		</g>
		<g>
			<g>
				<path class="st4" d="M1208.8,260.5c0.8,25.1,1.1,50.1,0.9,75.2c0,1.6,2,1.9,2.8,0.8c4.6-6.1,9.1-12.4,13.4-18.7
					c1.1-1.6-1.5-3.1-2.6-1.5c-4.3,6.3-8.8,12.6-13.4,18.7c0.9,0.3,1.9,0.5,2.8,0.8c0.2-25.1-0.1-50.1-0.9-75.2
					C1211.7,258.6,1208.7,258.5,1208.8,260.5L1208.8,260.5z"/>
			</g>
		</g>
		<g>
			<g>
				<path class="st4" d="M1215,355.6c14.7,0.8,28.7-7.6,35-21c0.8-1.7-1.8-3.3-2.6-1.5c-5.8,12.5-18.6,20.2-32.4,19.5
					C1213,352.5,1213,355.5,1215,355.6L1215,355.6z"/>
			</g>
		</g>
		<g>
			<g>
				<path class="st4" d="M1246.6,311.9c1.9,0,1.9-3,0-3C1244.6,308.9,1244.6,311.9,1246.6,311.9L1246.6,311.9z"/>
			</g>
		</g>
		<g>
			<g>
				<path class="st4" d="M1258.3,308.9c1.9,0,1.9-3,0-3C1256.4,305.9,1256.4,308.9,1258.3,308.9L1258.3,308.9z"/>
			</g>
		</g>
		<g>
			<g>
				<path class="st4" d="M1255.4,318.5c1.9,0,1.9-3,0-3C1253.4,315.5,1253.4,318.5,1255.4,318.5L1255.4,318.5z"/>
			</g>
		</g>
		<g>
			<g>
				<path class="st4" d="M1187.8,322.9c1.9,0,1.9-3,0-3C1185.9,319.9,1185.9,322.9,1187.8,322.9L1187.8,322.9z"/>
			</g>
		</g>
		<g>
			<g>
				<path class="st4" d="M1195.9,318.5c1.9,0,1.9-3,0-3C1194,315.5,1194,318.5,1195.9,318.5L1195.9,318.5z"/>
			</g>
		</g>
		<g>
			<g>
				<path class="st4" d="M1194.4,328.8c1.9,0,1.9-3,0-3C1192.5,325.8,1192.5,328.8,1194.4,328.8L1194.4,328.8z"/>
			</g>
		</g>
		<g>
			<g>
				<path class="st4" d="M1186.9,250.2c3.6-5.9,11.2-6.8,16.1-1.9c1.4,1.4,3.5-0.8,2.1-2.1c-6.3-6.3-16.2-5-20.8,2.5
					C1183.3,250.3,1185.9,251.8,1186.9,250.2L1186.9,250.2z"/>
			</g>
		</g>
		<g>
			<g>
				<path class="st4" d="M1234.4,241.7c6.7-6.8,17.2-6,22.4,2c1.1,1.6,3.7,0.1,2.6-1.5c-6.4-9.6-19.1-10.9-27.2-2.6
					C1230.9,240.9,1233,243.1,1234.4,241.7L1234.4,241.7z"/>
			</g>
		</g>
		<g>
			<g>
				<path class="st4" d="M1291.5,278.4c3.6-6.2,10.3-10.5,17.6-8.4c7.3,2.1,9.7,9.3,9.2,16.2c-0.8,13-12.1,22.9-25.3,20.7
					c-1.9-0.3-2.7,2.6-0.8,2.9c17,2.8,30.7-11.4,29-28.2c-0.8-7.6-5.6-13.7-13.3-14.9c-8-1.3-15.1,3.5-19,10.2
					C1288,278.5,1290.6,280,1291.5,278.4L1291.5,278.4z"/>
			</g>
		</g>
		<ellipse class="st4" cx="1191.3" cy="293" rx="3.5" ry="10.5"/>
		<ellipse class="st4" cx="1246.6" cy="288.3" rx="3.5" ry="10.5"/>
	</g>
</g>
</svg>
